<?xml version="1.0" encoding="UTF-8" standalone="no"?>
<!DOCTYPE svg PUBLIC "-//W3C//DTD SVG 1.1//EN"
 "http://www.w3.org/Graphics/SVG/1.1/DTD/svg11.dtd">
<!-- Generated by graphviz version 2.47.0 (20210316.0004)
 -->
<!-- Title: dependencies Pages: 1 -->
<svg width="504pt" height="284pt"
 viewBox="0.00 0.00 504.00 284.00" xmlns="http://www.w3.org/2000/svg" xmlns:xlink="http://www.w3.org/1999/xlink">
<g id="graph0" class="graph" transform="scale(1 1) rotate(0) translate(4 280)">
<title>dependencies</title>
<polygon fill="white" stroke="transparent" points="-4,4 -4,-280 500,-280 500,4 -4,4"/>
<text text-anchor="start" x="227.01" y="-42.4" font-family="Times-12" font-weight="bold" font-size="14.00">Legend</text>
<polygon fill="#ffffb3" stroke="transparent" points="14,-10 14,-30 34,-30 34,-10 14,-10"/>
<text text-anchor="start" x="37.63" y="-15.4" font-family="Times-12" font-size="14.00"> &#160;Declarations</text>
<polygon fill="#8dd3c7" stroke="transparent" points="127,-10 127,-30 147,-30 147,-10 127,-10"/>
<text text-anchor="start" x="150.73" y="-15.4" font-family="Times-12" font-size="14.00"> &#160;Module</text>
<polygon fill="#80b1d3" stroke="transparent" points="213,-10 213,-30 233,-30 233,-10 213,-10"/>
<text text-anchor="start" x="236.78" y="-15.4" font-family="Times-12" font-size="14.00"> &#160;Bootstrap</text>
<polygon fill="#fdb462" stroke="transparent" points="310,-10 310,-30 330,-30 330,-10 310,-10"/>
<text text-anchor="start" x="333.67" y="-15.4" font-family="Times-12" font-size="14.00"> &#160;Providers</text>
<polygon fill="#fb8072" stroke="transparent" points="406,-10 406,-30 426,-30 426,-10 406,-10"/>
<text text-anchor="start" x="429.73" y="-15.4" font-family="Times-12" font-size="14.00"> &#160;Exports</text>
<g id="clust1" class="cluster">
<title>cluster_RedisModule</title>
<polygon fill="none" stroke="black" stroke-dasharray="1,5" points="67,-70 67,-268 429,-268 429,-70 67,-70"/>
</g>
<g id="clust6" class="cluster">
<title>cluster_RedisModule_providers</title>
<polygon fill="none" stroke="black" points="75,-78 75,-130 421,-130 421,-78 75,-78"/>
</g>
<g id="clust4" class="cluster">
<title>cluster_RedisModule_exports</title>
<polygon fill="none" stroke="black" points="89,-208 89,-260 403,-260 403,-208 89,-208"/>
</g>
<!-- AdminEventsGateway  -->
<g id="node1" class="node">
<title>AdminEventsGateway </title>
<polygon fill="#fb8072" stroke="black" points="395.24,-252 248.76,-252 248.76,-216 395.24,-216 395.24,-252"/>
<text text-anchor="middle" x="322" y="-229.8" font-family="Times,serif" font-size="14.00">AdminEventsGateway </text>
</g>
<!-- WebEventsGateway  -->
<g id="node2" class="node">
<title>WebEventsGateway </title>
<polygon fill="#fb8072" stroke="black" points="230.78,-252 97.22,-252 97.22,-216 230.78,-216 230.78,-252"/>
<text text-anchor="middle" x="164" y="-229.8" font-family="Times,serif" font-size="14.00">WebEventsGateway </text>
</g>
<!-- RedisModule -->
<g id="node3" class="node">
<title>RedisModule</title>
<polygon fill="#8dd3c7" stroke="black" points="223.94,-187 220.94,-191 199.94,-191 196.94,-187 132.06,-187 132.06,-151 223.94,-151 223.94,-187"/>
<text text-anchor="middle" x="178" y="-164.8" font-family="Times,serif" font-size="14.00">RedisModule</text>
</g>
<!-- RedisModule&#45;&gt;AdminEventsGateway  -->
<g id="edge1" class="edge">
<title>RedisModule&#45;&gt;AdminEventsGateway </title>
<path fill="none" stroke="black" stroke-dasharray="5,2" d="M224.05,-175C241.82,-175 257.96,-175 257.96,-175 257.96,-175 257.96,-205.98 257.96,-205.98"/>
<polygon fill="black" stroke="black" points="254.46,-205.98 257.96,-215.98 261.46,-205.98 254.46,-205.98"/>
</g>
<!-- RedisModule&#45;&gt;WebEventsGateway  -->
<g id="edge2" class="edge">
<title>RedisModule&#45;&gt;WebEventsGateway </title>
<path fill="none" stroke="black" stroke-dasharray="5,2" d="M178,-187.11C178,-187.11 178,-205.99 178,-205.99"/>
<polygon fill="black" stroke="black" points="174.5,-205.99 178,-215.99 181.5,-205.99 174.5,-205.99"/>
</g>
<!-- CacheService -->
<g id="node4" class="node">
<title>CacheService</title>
<ellipse fill="#fdb462" stroke="black" cx="349" cy="-104" rx="64.24" ry="18"/>
<text text-anchor="middle" x="349" y="-99.8" font-family="Times,serif" font-size="14.00">CacheService</text>
</g>
<!-- CacheService&#45;&gt;RedisModule -->
<g id="edge3" class="edge">
<title>CacheService&#45;&gt;RedisModule</title>
<path fill="none" stroke="black" d="M340,-122.02C340,-139.37 340,-163 340,-163 340,-163 233.99,-163 233.99,-163"/>
<polygon fill="black" stroke="black" points="233.99,-159.5 223.99,-163 233.99,-166.5 233.99,-159.5"/>
</g>
<!-- RedisPubSubService -->
<g id="node5" class="node">
<title>RedisPubSubService</title>
<ellipse fill="#fdb462" stroke="black" cx="175" cy="-104" rx="92.07" ry="18"/>
<text text-anchor="middle" x="175" y="-99.8" font-family="Times,serif" font-size="14.00">RedisPubSubService</text>
</g>
<!-- RedisPubSubService&#45;&gt;RedisModule -->
<g id="edge4" class="edge">
<title>RedisPubSubService&#45;&gt;RedisModule</title>
<path fill="none" stroke="black" d="M178,-122.11C178,-122.11 178,-140.99 178,-140.99"/>
<polygon fill="black" stroke="black" points="174.5,-140.99 178,-150.99 181.5,-140.99 174.5,-140.99"/>
</g>
</g>
</svg>
