<?xml version="1.0" encoding="UTF-8" standalone="no"?>
<!DOCTYPE svg PUBLIC "-//W3C//DTD SVG 1.1//EN"
 "http://www.w3.org/Graphics/SVG/1.1/DTD/svg11.dtd">
<!-- Generated by graphviz version 2.47.0 (20210316.0004)
 -->
<!-- Title: dependencies Pages: 1 -->
<svg width="504pt" height="284pt"
 viewBox="0.00 0.00 504.00 284.00" xmlns="http://www.w3.org/2000/svg" xmlns:xlink="http://www.w3.org/1999/xlink">
<g id="graph0" class="graph" transform="scale(1 1) rotate(0) translate(4 280)">
<title>dependencies</title>
<polygon fill="white" stroke="transparent" points="-4,4 -4,-280 500,-280 500,4 -4,4"/>
<text text-anchor="start" x="227.01" y="-42.4" font-family="Times-12" font-weight="bold" font-size="14.00">Legend</text>
<polygon fill="#ffffb3" stroke="transparent" points="14,-10 14,-30 34,-30 34,-10 14,-10"/>
<text text-anchor="start" x="37.63" y="-15.4" font-family="Times-12" font-size="14.00"> &#160;Declarations</text>
<polygon fill="#8dd3c7" stroke="transparent" points="127,-10 127,-30 147,-30 147,-10 127,-10"/>
<text text-anchor="start" x="150.73" y="-15.4" font-family="Times-12" font-size="14.00"> &#160;Module</text>
<polygon fill="#80b1d3" stroke="transparent" points="213,-10 213,-30 233,-30 233,-10 213,-10"/>
<text text-anchor="start" x="236.78" y="-15.4" font-family="Times-12" font-size="14.00"> &#160;Bootstrap</text>
<polygon fill="#fdb462" stroke="transparent" points="310,-10 310,-30 330,-30 330,-10 310,-10"/>
<text text-anchor="start" x="333.67" y="-15.4" font-family="Times-12" font-size="14.00"> &#160;Providers</text>
<polygon fill="#fb8072" stroke="transparent" points="406,-10 406,-30 426,-30 426,-10 406,-10"/>
<text text-anchor="start" x="429.73" y="-15.4" font-family="Times-12" font-size="14.00"> &#160;Exports</text>
<g id="clust1" class="cluster">
<title>cluster_DeptModule</title>
<polygon fill="none" stroke="black" stroke-dasharray="1,5" points="65,-70 65,-268 431,-268 431,-70 65,-70"/>
</g>
<g id="clust4" class="cluster">
<title>cluster_DeptModule_exports</title>
<polygon fill="none" stroke="black" points="174,-208 174,-260 282,-260 282,-208 174,-208"/>
</g>
<g id="clust6" class="cluster">
<title>cluster_DeptModule_providers</title>
<polygon fill="none" stroke="black" points="287,-78 287,-130 423,-130 423,-78 287,-78"/>
</g>
<g id="clust3" class="cluster">
<title>cluster_DeptModule_imports</title>
<polygon fill="none" stroke="black" points="73,-78 73,-130 279,-130 279,-78 73,-78"/>
</g>
<!-- RoleModule -->
<g id="node1" class="node">
<title>RoleModule</title>
<polygon fill="#8dd3c7" stroke="black" points="270.99,-122 267.99,-126 246.99,-126 243.99,-122 185.01,-122 185.01,-86 270.99,-86 270.99,-122"/>
<text text-anchor="middle" x="228" y="-99.8" font-family="Times,serif" font-size="14.00">RoleModule</text>
</g>
<!-- DeptModule -->
<g id="node3" class="node">
<title>DeptModule</title>
<polygon fill="#8dd3c7" stroke="black" points="271.26,-187 268.26,-191 247.26,-191 244.26,-187 184.74,-187 184.74,-151 271.26,-151 271.26,-187"/>
<text text-anchor="middle" x="228" y="-164.8" font-family="Times,serif" font-size="14.00">DeptModule</text>
</g>
<!-- RoleModule&#45;&gt;DeptModule -->
<g id="edge1" class="edge">
<title>RoleModule&#45;&gt;DeptModule</title>
<path fill="none" stroke="black" d="M228,-122.11C228,-122.11 228,-140.99 228,-140.99"/>
<polygon fill="black" stroke="black" points="224.5,-140.99 228,-150.99 231.5,-140.99 224.5,-140.99"/>
</g>
<!-- UserModule -->
<g id="node2" class="node">
<title>UserModule</title>
<polygon fill="#8dd3c7" stroke="black" points="166.98,-122 163.98,-126 142.98,-126 139.98,-122 81.02,-122 81.02,-86 166.98,-86 166.98,-122"/>
<text text-anchor="middle" x="124" y="-99.8" font-family="Times,serif" font-size="14.00">UserModule</text>
</g>
<!-- UserModule&#45;&gt;DeptModule -->
<g id="edge2" class="edge">
<title>UserModule&#45;&gt;DeptModule</title>
<path fill="none" stroke="black" d="M124,-122.11C124,-141.34 124,-169 124,-169 124,-169 174.5,-169 174.5,-169"/>
<polygon fill="black" stroke="black" points="174.5,-172.5 184.5,-169 174.5,-165.5 174.5,-172.5"/>
</g>
<!-- TodoService  -->
<g id="node4" class="node">
<title>TodoService </title>
<polygon fill="#fb8072" stroke="black" points="273.53,-252 182.47,-252 182.47,-216 273.53,-216 273.53,-252"/>
<text text-anchor="middle" x="228" y="-229.8" font-family="Times,serif" font-size="14.00">TodoService </text>
</g>
<!-- DeptModule&#45;&gt;TodoService  -->
<g id="edge3" class="edge">
<title>DeptModule&#45;&gt;TodoService </title>
<path fill="none" stroke="black" stroke-dasharray="5,2" d="M228,-187.11C228,-187.11 228,-205.99 228,-205.99"/>
<polygon fill="black" stroke="black" points="224.5,-205.99 228,-215.99 231.5,-205.99 224.5,-205.99"/>
</g>
<!-- TodoService -->
<g id="node5" class="node">
<title>TodoService</title>
<ellipse fill="#fdb462" stroke="black" cx="355" cy="-104" rx="60.25" ry="18"/>
<text text-anchor="middle" x="355" y="-99.8" font-family="Times,serif" font-size="14.00">TodoService</text>
</g>
<!-- TodoService&#45;&gt;DeptModule -->
<g id="edge4" class="edge">
<title>TodoService&#45;&gt;DeptModule</title>
<path fill="none" stroke="black" d="M355,-122.11C355,-141.34 355,-169 355,-169 355,-169 281.35,-169 281.35,-169"/>
<polygon fill="black" stroke="black" points="281.35,-165.5 271.35,-169 281.35,-172.5 281.35,-165.5"/>
</g>
</g>
</svg>
