<?xml version="1.0" encoding="UTF-8" standalone="no"?>
<!DOCTYPE svg PUBLIC "-//W3C//DTD SVG 1.1//EN"
 "http://www.w3.org/Graphics/SVG/1.1/DTD/svg11.dtd">
<!-- Generated by graphviz version 2.47.0 (20210316.0004)
 -->
<!-- Title: dependencies Pages: 1 -->
<svg width="742pt" height="284pt"
 viewBox="0.00 0.00 742.00 284.00" xmlns="http://www.w3.org/2000/svg" xmlns:xlink="http://www.w3.org/1999/xlink">
<g id="graph0" class="graph" transform="scale(1 1) rotate(0) translate(4 280)">
<title>dependencies</title>
<polygon fill="white" stroke="transparent" points="-4,4 -4,-280 738,-280 738,4 -4,4"/>
<text text-anchor="start" x="346.01" y="-42.4" font-family="Times-12" font-weight="bold" font-size="14.00">Legend</text>
<polygon fill="#ffffb3" stroke="transparent" points="133,-10 133,-30 153,-30 153,-10 133,-10"/>
<text text-anchor="start" x="156.63" y="-15.4" font-family="Times-12" font-size="14.00"> &#160;Declarations</text>
<polygon fill="#8dd3c7" stroke="transparent" points="246,-10 246,-30 266,-30 266,-10 246,-10"/>
<text text-anchor="start" x="269.73" y="-15.4" font-family="Times-12" font-size="14.00"> &#160;Module</text>
<polygon fill="#80b1d3" stroke="transparent" points="332,-10 332,-30 352,-30 352,-10 332,-10"/>
<text text-anchor="start" x="355.78" y="-15.4" font-family="Times-12" font-size="14.00"> &#160;Bootstrap</text>
<polygon fill="#fdb462" stroke="transparent" points="429,-10 429,-30 449,-30 449,-10 429,-10"/>
<text text-anchor="start" x="452.67" y="-15.4" font-family="Times-12" font-size="14.00"> &#160;Providers</text>
<polygon fill="#fb8072" stroke="transparent" points="525,-10 525,-30 545,-30 545,-10 525,-10"/>
<text text-anchor="start" x="548.73" y="-15.4" font-family="Times-12" font-size="14.00"> &#160;Exports</text>
<g id="clust1" class="cluster">
<title>cluster_AuthModule</title>
<polygon fill="none" stroke="black" stroke-dasharray="1,5" points="8,-70 8,-268 726,-268 726,-70 8,-70"/>
</g>
<g id="clust3" class="cluster">
<title>cluster_AuthModule_imports</title>
<polygon fill="none" stroke="black" points="302,-78 302,-130 718,-130 718,-78 302,-78"/>
</g>
<g id="clust4" class="cluster">
<title>cluster_AuthModule_exports</title>
<polygon fill="none" stroke="black" points="251,-208 251,-260 565,-260 565,-208 251,-208"/>
</g>
<g id="clust6" class="cluster">
<title>cluster_AuthModule_providers</title>
<polygon fill="none" stroke="black" points="16,-78 16,-130 294,-130 294,-78 16,-78"/>
</g>
<!-- LogModule -->
<g id="node1" class="node">
<title>LogModule</title>
<polygon fill="#8dd3c7" stroke="black" points="710.1,-122 707.1,-126 686.1,-126 683.1,-122 627.9,-122 627.9,-86 710.1,-86 710.1,-122"/>
<text text-anchor="middle" x="669" y="-99.8" font-family="Times,serif" font-size="14.00">LogModule</text>
</g>
<!-- AuthModule -->
<g id="node5" class="node">
<title>AuthModule</title>
<polygon fill="#8dd3c7" stroke="black" points="448.55,-187 445.55,-191 424.55,-191 421.55,-187 361.45,-187 361.45,-151 448.55,-151 448.55,-187"/>
<text text-anchor="middle" x="405" y="-164.8" font-family="Times,serif" font-size="14.00">AuthModule</text>
</g>
<!-- LogModule&#45;&gt;AuthModule -->
<g id="edge1" class="edge">
<title>LogModule&#45;&gt;AuthModule</title>
<path fill="none" stroke="black" d="M669,-122.28C669,-143.32 669,-175 669,-175 669,-175 458.59,-175 458.59,-175"/>
<polygon fill="black" stroke="black" points="458.59,-171.5 448.59,-175 458.59,-178.5 458.59,-171.5"/>
</g>
<!-- MenuModule -->
<g id="node2" class="node">
<title>MenuModule</title>
<polygon fill="#8dd3c7" stroke="black" points="610.21,-122 607.21,-126 586.21,-126 583.21,-122 517.79,-122 517.79,-86 610.21,-86 610.21,-122"/>
<text text-anchor="middle" x="564" y="-99.8" font-family="Times,serif" font-size="14.00">MenuModule</text>
</g>
<!-- MenuModule&#45;&gt;AuthModule -->
<g id="edge2" class="edge">
<title>MenuModule&#45;&gt;AuthModule</title>
<path fill="none" stroke="black" d="M537.51,-122.02C537.51,-139.37 537.51,-163 537.51,-163 537.51,-163 458.76,-163 458.76,-163"/>
<polygon fill="black" stroke="black" points="458.76,-159.5 448.76,-163 458.76,-166.5 458.76,-159.5"/>
</g>
<!-- RoleModule -->
<g id="node3" class="node">
<title>RoleModule</title>
<polygon fill="#8dd3c7" stroke="black" points="499.99,-122 496.99,-126 475.99,-126 472.99,-122 414.01,-122 414.01,-86 499.99,-86 499.99,-122"/>
<text text-anchor="middle" x="457" y="-99.8" font-family="Times,serif" font-size="14.00">RoleModule</text>
</g>
<!-- RoleModule&#45;&gt;AuthModule -->
<g id="edge3" class="edge">
<title>RoleModule&#45;&gt;AuthModule</title>
<path fill="none" stroke="black" d="M431.39,-122.11C431.39,-122.11 431.39,-140.99 431.39,-140.99"/>
<polygon fill="black" stroke="black" points="427.89,-140.99 431.39,-150.99 434.89,-140.99 427.89,-140.99"/>
</g>
<!-- UserModule -->
<g id="node4" class="node">
<title>UserModule</title>
<polygon fill="#8dd3c7" stroke="black" points="395.98,-122 392.98,-126 371.98,-126 368.98,-122 310.02,-122 310.02,-86 395.98,-86 395.98,-122"/>
<text text-anchor="middle" x="353" y="-99.8" font-family="Times,serif" font-size="14.00">UserModule</text>
</g>
<!-- UserModule&#45;&gt;AuthModule -->
<g id="edge4" class="edge">
<title>UserModule&#45;&gt;AuthModule</title>
<path fill="none" stroke="black" d="M378.61,-122.11C378.61,-122.11 378.61,-140.99 378.61,-140.99"/>
<polygon fill="black" stroke="black" points="375.11,-140.99 378.61,-150.99 382.11,-140.99 375.11,-140.99"/>
</g>
<!-- AdminEventsGateway  -->
<g id="node6" class="node">
<title>AdminEventsGateway </title>
<polygon fill="#fb8072" stroke="black" points="557.24,-252 410.76,-252 410.76,-216 557.24,-216 557.24,-252"/>
<text text-anchor="middle" x="484" y="-229.8" font-family="Times,serif" font-size="14.00">AdminEventsGateway </text>
</g>
<!-- AuthModule&#45;&gt;AdminEventsGateway  -->
<g id="edge5" class="edge">
<title>AuthModule&#45;&gt;AdminEventsGateway </title>
<path fill="none" stroke="black" stroke-dasharray="5,2" d="M429.83,-187.11C429.83,-187.11 429.83,-205.99 429.83,-205.99"/>
<polygon fill="black" stroke="black" points="426.33,-205.99 429.83,-215.99 433.33,-205.99 426.33,-205.99"/>
</g>
<!-- WebEventsGateway  -->
<g id="node7" class="node">
<title>WebEventsGateway </title>
<polygon fill="#fb8072" stroke="black" points="392.78,-252 259.22,-252 259.22,-216 392.78,-216 392.78,-252"/>
<text text-anchor="middle" x="326" y="-229.8" font-family="Times,serif" font-size="14.00">WebEventsGateway </text>
</g>
<!-- AuthModule&#45;&gt;WebEventsGateway  -->
<g id="edge6" class="edge">
<title>AuthModule&#45;&gt;WebEventsGateway </title>
<path fill="none" stroke="black" stroke-dasharray="5,2" d="M377.06,-187.11C377.06,-187.11 377.06,-205.99 377.06,-205.99"/>
<polygon fill="black" stroke="black" points="373.56,-205.99 377.06,-215.99 380.56,-205.99 373.56,-205.99"/>
</g>
<!-- JwtStrategy -->
<g id="node8" class="node">
<title>JwtStrategy</title>
<ellipse fill="#fdb462" stroke="black" cx="229" cy="-104" rx="56.76" ry="18"/>
<text text-anchor="middle" x="229" y="-99.8" font-family="Times,serif" font-size="14.00">JwtStrategy</text>
</g>
<!-- JwtStrategy&#45;&gt;AuthModule -->
<g id="edge7" class="edge">
<title>JwtStrategy&#45;&gt;AuthModule</title>
<path fill="none" stroke="black" d="M272.37,-115.66C272.37,-132.85 272.37,-163 272.37,-163 272.37,-163 351.2,-163 351.2,-163"/>
<polygon fill="black" stroke="black" points="351.2,-166.5 361.2,-163 351.2,-159.5 351.2,-166.5"/>
</g>
<!-- LocalStrategy -->
<g id="node9" class="node">
<title>LocalStrategy</title>
<ellipse fill="#fdb462" stroke="black" cx="89" cy="-104" rx="65.41" ry="18"/>
<text text-anchor="middle" x="89" y="-99.8" font-family="Times,serif" font-size="14.00">LocalStrategy</text>
</g>
<!-- LocalStrategy&#45;&gt;AuthModule -->
<g id="edge8" class="edge">
<title>LocalStrategy&#45;&gt;AuthModule</title>
<path fill="none" stroke="black" d="M89,-122.28C89,-143.32 89,-175 89,-175 89,-175 351.39,-175 351.39,-175"/>
<polygon fill="black" stroke="black" points="351.39,-178.5 361.39,-175 351.39,-171.5 351.39,-178.5"/>
</g>
</g>
</svg>
