<?xml version="1.0" encoding="UTF-8" standalone="no"?>
<!DOCTYPE svg PUBLIC "-//W3C//DTD SVG 1.1//EN"
 "http://www.w3.org/Graphics/SVG/1.1/DTD/svg11.dtd">
<!-- Generated by graphviz version 2.47.0 (20210316.0004)
 -->
<!-- Title: dependencies Pages: 1 -->
<svg width="1340pt" height="284pt"
 viewBox="0.00 0.00 1340.00 284.00" xmlns="http://www.w3.org/2000/svg" xmlns:xlink="http://www.w3.org/1999/xlink">
<g id="graph0" class="graph" transform="scale(1 1) rotate(0) translate(4 280)">
<title>dependencies</title>
<polygon fill="white" stroke="transparent" points="-4,4 -4,-280 1336,-280 1336,4 -4,4"/>
<text text-anchor="start" x="645.01" y="-42.4" font-family="Times-12" font-weight="bold" font-size="14.00">Legend</text>
<polygon fill="#ffffb3" stroke="transparent" points="432,-10 432,-30 452,-30 452,-10 432,-10"/>
<text text-anchor="start" x="455.63" y="-15.4" font-family="Times-12" font-size="14.00"> &#160;Declarations</text>
<polygon fill="#8dd3c7" stroke="transparent" points="545,-10 545,-30 565,-30 565,-10 545,-10"/>
<text text-anchor="start" x="568.73" y="-15.4" font-family="Times-12" font-size="14.00"> &#160;Module</text>
<polygon fill="#80b1d3" stroke="transparent" points="631,-10 631,-30 651,-30 651,-10 631,-10"/>
<text text-anchor="start" x="654.78" y="-15.4" font-family="Times-12" font-size="14.00"> &#160;Bootstrap</text>
<polygon fill="#fdb462" stroke="transparent" points="728,-10 728,-30 748,-30 748,-10 728,-10"/>
<text text-anchor="start" x="751.67" y="-15.4" font-family="Times-12" font-size="14.00"> &#160;Providers</text>
<polygon fill="#fb8072" stroke="transparent" points="824,-10 824,-30 844,-30 844,-10 824,-10"/>
<text text-anchor="start" x="847.73" y="-15.4" font-family="Times-12" font-size="14.00"> &#160;Exports</text>
<g id="clust1" class="cluster">
<title>cluster_ToolsModule</title>
<polygon fill="none" stroke="black" stroke-dasharray="1,5" points="8,-70 8,-268 1324,-268 1324,-70 8,-70"/>
</g>
<g id="clust4" class="cluster">
<title>cluster_ToolsModule_exports</title>
<polygon fill="none" stroke="black" points="16,-208 16,-260 1316,-260 1316,-208 16,-208"/>
</g>
<g id="clust3" class="cluster">
<title>cluster_ToolsModule_imports</title>
<polygon fill="none" stroke="black" points="36,-78 36,-130 1296,-130 1296,-78 36,-78"/>
</g>
<!-- DeptModule -->
<g id="node1" class="node">
<title>DeptModule</title>
<polygon fill="#8dd3c7" stroke="black" points="1288.26,-122 1285.26,-126 1264.26,-126 1261.26,-122 1201.74,-122 1201.74,-86 1288.26,-86 1288.26,-122"/>
<text text-anchor="middle" x="1245" y="-99.8" font-family="Times,serif" font-size="14.00">DeptModule</text>
</g>
<!-- ToolsModule -->
<g id="node12" class="node">
<title>ToolsModule</title>
<polygon fill="#8dd3c7" stroke="black" points="712.94,-187 709.94,-191 688.94,-191 685.94,-187 621.06,-187 621.06,-151 712.94,-151 712.94,-187"/>
<text text-anchor="middle" x="667" y="-164.8" font-family="Times,serif" font-size="14.00">ToolsModule</text>
</g>
<!-- DeptModule&#45;&gt;ToolsModule -->
<g id="edge1" class="edge">
<title>DeptModule&#45;&gt;ToolsModule</title>
<path fill="none" stroke="black" d="M1209.74,-122.17C1209.74,-141.09 1209.74,-168 1209.74,-168 1209.74,-168 722.81,-168 722.81,-168"/>
<polygon fill="black" stroke="black" points="722.81,-164.5 712.81,-168 722.81,-171.5 722.81,-164.5"/>
</g>
<!-- DictItemModule -->
<g id="node2" class="node">
<title>DictItemModule</title>
<polygon fill="#8dd3c7" stroke="black" points="1183.81,-122 1180.81,-126 1159.81,-126 1156.81,-122 1074.19,-122 1074.19,-86 1183.81,-86 1183.81,-122"/>
<text text-anchor="middle" x="1129" y="-99.8" font-family="Times,serif" font-size="14.00">DictItemModule</text>
</g>
<!-- DictItemModule&#45;&gt;ToolsModule -->
<g id="edge2" class="edge">
<title>DictItemModule&#45;&gt;ToolsModule</title>
<path fill="none" stroke="black" d="M1080.47,-122.3C1080.47,-140.27 1080.47,-165 1080.47,-165 1080.47,-165 722.83,-165 722.83,-165"/>
<polygon fill="black" stroke="black" points="722.83,-161.5 712.83,-165 722.83,-168.5 722.83,-161.5"/>
</g>
<!-- DictTypeModule -->
<g id="node3" class="node">
<title>DictTypeModule</title>
<polygon fill="#8dd3c7" stroke="black" points="1056.42,-122 1053.42,-126 1032.42,-126 1029.42,-122 943.58,-122 943.58,-86 1056.42,-86 1056.42,-122"/>
<text text-anchor="middle" x="1000" y="-99.8" font-family="Times,serif" font-size="14.00">DictTypeModule</text>
</g>
<!-- DictTypeModule&#45;&gt;ToolsModule -->
<g id="edge3" class="edge">
<title>DictTypeModule&#45;&gt;ToolsModule</title>
<path fill="none" stroke="black" d="M948.42,-122.04C948.42,-138.73 948.42,-161 948.42,-161 948.42,-161 722.84,-161 722.84,-161"/>
<polygon fill="black" stroke="black" points="722.84,-157.5 712.84,-161 722.84,-164.5 722.84,-157.5"/>
</g>
<!-- LogModule -->
<g id="node4" class="node">
<title>LogModule</title>
<polygon fill="#8dd3c7" stroke="black" points="926.1,-122 923.1,-126 902.1,-126 899.1,-122 843.9,-122 843.9,-86 926.1,-86 926.1,-122"/>
<text text-anchor="middle" x="885" y="-99.8" font-family="Times,serif" font-size="14.00">LogModule</text>
</g>
<!-- LogModule&#45;&gt;ToolsModule -->
<g id="edge4" class="edge">
<title>LogModule&#45;&gt;ToolsModule</title>
<path fill="none" stroke="black" d="M900.43,-122.28C900.43,-137.95 900.43,-158 900.43,-158 900.43,-158 722.84,-158 722.84,-158"/>
<polygon fill="black" stroke="black" points="722.84,-154.5 712.84,-158 722.84,-161.5 722.84,-154.5"/>
</g>
<!-- MenuModule -->
<g id="node5" class="node">
<title>MenuModule</title>
<polygon fill="#8dd3c7" stroke="black" points="826.21,-122 823.21,-126 802.21,-126 799.21,-122 733.79,-122 733.79,-86 826.21,-86 826.21,-122"/>
<text text-anchor="middle" x="780" y="-99.8" font-family="Times,serif" font-size="14.00">MenuModule</text>
</g>
<!-- MenuModule&#45;&gt;ToolsModule -->
<g id="edge5" class="edge">
<title>MenuModule&#45;&gt;ToolsModule</title>
<path fill="none" stroke="black" d="M795.78,-122.12C795.78,-136.78 795.78,-155 795.78,-155 795.78,-155 722.77,-155 722.77,-155"/>
<polygon fill="black" stroke="black" points="722.77,-151.5 712.77,-155 722.77,-158.5 722.77,-151.5"/>
</g>
<!-- OnlineModule -->
<g id="node6" class="node">
<title>OnlineModule</title>
<polygon fill="#8dd3c7" stroke="black" points="715.65,-122 712.65,-126 691.65,-126 688.65,-122 618.35,-122 618.35,-86 715.65,-86 715.65,-122"/>
<text text-anchor="middle" x="667" y="-99.8" font-family="Times,serif" font-size="14.00">OnlineModule</text>
</g>
<!-- OnlineModule&#45;&gt;ToolsModule -->
<g id="edge6" class="edge">
<title>OnlineModule&#45;&gt;ToolsModule</title>
<path fill="none" stroke="black" d="M667,-122.11C667,-122.11 667,-140.99 667,-140.99"/>
<polygon fill="black" stroke="black" points="663.5,-140.99 667,-150.99 670.5,-140.99 663.5,-140.99"/>
</g>
<!-- ParamConfigModule -->
<g id="node7" class="node">
<title>ParamConfigModule</title>
<polygon fill="#8dd3c7" stroke="black" points="600.2,-122 597.2,-126 576.2,-126 573.2,-122 465.8,-122 465.8,-86 600.2,-86 600.2,-122"/>
<text text-anchor="middle" x="533" y="-99.8" font-family="Times,serif" font-size="14.00">ParamConfigModule</text>
</g>
<!-- ParamConfigModule&#45;&gt;ToolsModule -->
<g id="edge7" class="edge">
<title>ParamConfigModule&#45;&gt;ToolsModule</title>
<path fill="none" stroke="black" d="M554.53,-122.12C554.53,-136.78 554.53,-155 554.53,-155 554.53,-155 611.26,-155 611.26,-155"/>
<polygon fill="black" stroke="black" points="611.26,-158.5 621.26,-155 611.26,-151.5 611.26,-158.5"/>
</g>
<!-- RoleModule -->
<g id="node8" class="node">
<title>RoleModule</title>
<polygon fill="#8dd3c7" stroke="black" points="447.99,-122 444.99,-126 423.99,-126 420.99,-122 362.01,-122 362.01,-86 447.99,-86 447.99,-122"/>
<text text-anchor="middle" x="405" y="-99.8" font-family="Times,serif" font-size="14.00">RoleModule</text>
</g>
<!-- RoleModule&#45;&gt;ToolsModule -->
<g id="edge8" class="edge">
<title>RoleModule&#45;&gt;ToolsModule</title>
<path fill="none" stroke="black" d="M415.83,-122.28C415.83,-137.95 415.83,-158 415.83,-158 415.83,-158 611.22,-158 611.22,-158"/>
<polygon fill="black" stroke="black" points="611.22,-161.5 621.22,-158 611.22,-154.5 611.22,-161.5"/>
</g>
<!-- ServeModule -->
<g id="node9" class="node">
<title>ServeModule</title>
<polygon fill="#8dd3c7" stroke="black" points="343.92,-122 340.92,-126 319.92,-126 316.92,-122 252.08,-122 252.08,-86 343.92,-86 343.92,-122"/>
<text text-anchor="middle" x="298" y="-99.8" font-family="Times,serif" font-size="14.00">ServeModule</text>
</g>
<!-- ServeModule&#45;&gt;ToolsModule -->
<g id="edge9" class="edge">
<title>ServeModule&#45;&gt;ToolsModule</title>
<path fill="none" stroke="black" d="M339.59,-122.04C339.59,-138.73 339.59,-161 339.59,-161 339.59,-161 611.13,-161 611.13,-161"/>
<polygon fill="black" stroke="black" points="611.13,-164.5 621.13,-161 611.13,-157.5 611.13,-164.5"/>
</g>
<!-- TaskModule -->
<g id="node10" class="node">
<title>TaskModule</title>
<polygon fill="#8dd3c7" stroke="black" points="234.26,-122 231.26,-126 210.26,-126 207.26,-122 147.74,-122 147.74,-86 234.26,-86 234.26,-122"/>
<text text-anchor="middle" x="191" y="-99.8" font-family="Times,serif" font-size="14.00">TaskModule</text>
</g>
<!-- TaskModule&#45;&gt;ToolsModule -->
<g id="edge10" class="edge">
<title>TaskModule&#45;&gt;ToolsModule</title>
<path fill="none" stroke="black" d="M228.26,-122.3C228.26,-140.27 228.26,-165 228.26,-165 228.26,-165 610.88,-165 610.88,-165"/>
<polygon fill="black" stroke="black" points="610.88,-168.5 620.88,-165 610.88,-161.5 610.88,-168.5"/>
</g>
<!-- UserModule -->
<g id="node11" class="node">
<title>UserModule</title>
<polygon fill="#8dd3c7" stroke="black" points="129.98,-122 126.98,-126 105.98,-126 102.98,-122 44.02,-122 44.02,-86 129.98,-86 129.98,-122"/>
<text text-anchor="middle" x="87" y="-99.8" font-family="Times,serif" font-size="14.00">UserModule</text>
</g>
<!-- UserModule&#45;&gt;ToolsModule -->
<g id="edge11" class="edge">
<title>UserModule&#45;&gt;ToolsModule</title>
<path fill="none" stroke="black" d="M121.86,-122.17C121.86,-141.09 121.86,-168 121.86,-168 121.86,-168 610.99,-168 610.99,-168"/>
<polygon fill="black" stroke="black" points="610.99,-171.5 620.99,-168 610.99,-164.5 610.99,-171.5"/>
</g>
<!-- DeptModule  -->
<g id="node13" class="node">
<title>DeptModule </title>
<polygon fill="#fb8072" stroke="black" points="1308.26,-252 1217.74,-252 1217.74,-216 1308.26,-216 1308.26,-252"/>
<text text-anchor="middle" x="1263" y="-229.8" font-family="Times,serif" font-size="14.00">DeptModule </text>
</g>
<!-- ToolsModule&#45;&gt;DeptModule  -->
<g id="edge12" class="edge">
<title>ToolsModule&#45;&gt;DeptModule </title>
<path fill="none" stroke="black" stroke-dasharray="5,2" d="M712.99,-171C851.17,-171 1253.12,-171 1253.12,-171 1253.12,-171 1253.12,-205.78 1253.12,-205.78"/>
<polygon fill="black" stroke="black" points="1249.63,-205.78 1253.12,-215.78 1256.63,-205.78 1249.63,-205.78"/>
</g>
<!-- DictItemModule  -->
<g id="node14" class="node">
<title>DictItemModule </title>
<polygon fill="#fb8072" stroke="black" points="1199.31,-252 1086.69,-252 1086.69,-216 1199.31,-216 1199.31,-252"/>
<text text-anchor="middle" x="1143" y="-229.8" font-family="Times,serif" font-size="14.00">DictItemModule </text>
</g>
<!-- ToolsModule&#45;&gt;DictItemModule  -->
<g id="edge13" class="edge">
<title>ToolsModule&#45;&gt;DictItemModule </title>
<path fill="none" stroke="black" stroke-dasharray="5,2" d="M712.74,-174C830.53,-174 1135.12,-174 1135.12,-174 1135.12,-174 1135.12,-206 1135.12,-206"/>
<polygon fill="black" stroke="black" points="1131.63,-206 1135.12,-216 1138.63,-206 1131.63,-206"/>
</g>
<!-- DictTypeModule  -->
<g id="node15" class="node">
<title>DictTypeModule </title>
<polygon fill="#fb8072" stroke="black" points="1068.92,-252 953.08,-252 953.08,-216 1068.92,-216 1068.92,-252"/>
<text text-anchor="middle" x="1011" y="-229.8" font-family="Times,serif" font-size="14.00">DictTypeModule </text>
</g>
<!-- ToolsModule&#45;&gt;DictTypeModule  -->
<g id="edge14" class="edge">
<title>ToolsModule&#45;&gt;DictTypeModule </title>
<path fill="none" stroke="black" stroke-dasharray="5,2" d="M712.88,-178C805.2,-178 1004.62,-178 1004.62,-178 1004.62,-178 1004.62,-205.97 1004.62,-205.97"/>
<polygon fill="black" stroke="black" points="1001.13,-205.97 1004.62,-215.97 1008.13,-205.97 1001.13,-205.97"/>
</g>
<!-- LogModule  -->
<g id="node16" class="node">
<title>LogModule </title>
<polygon fill="#fb8072" stroke="black" points="934.6,-252 849.4,-252 849.4,-216 934.6,-216 934.6,-252"/>
<text text-anchor="middle" x="892" y="-229.8" font-family="Times,serif" font-size="14.00">LogModule </text>
</g>
<!-- ToolsModule&#45;&gt;LogModule  -->
<g id="edge15" class="edge">
<title>ToolsModule&#45;&gt;LogModule </title>
<path fill="none" stroke="black" stroke-dasharray="5,2" d="M712.86,-181C774.06,-181 874.82,-181 874.82,-181 874.82,-181 874.82,-205.76 874.82,-205.76"/>
<polygon fill="black" stroke="black" points="871.32,-205.76 874.82,-215.76 878.32,-205.76 871.32,-205.76"/>
</g>
<!-- MenuModule  -->
<g id="node17" class="node">
<title>MenuModule </title>
<polygon fill="#fb8072" stroke="black" points="830.71,-252 735.29,-252 735.29,-216 830.71,-216 830.71,-252"/>
<text text-anchor="middle" x="783" y="-229.8" font-family="Times,serif" font-size="14.00">MenuModule </text>
</g>
<!-- ToolsModule&#45;&gt;MenuModule  -->
<g id="edge16" class="edge">
<title>ToolsModule&#45;&gt;MenuModule </title>
<path fill="none" stroke="black" stroke-dasharray="5,2" d="M712.77,-184C738.49,-184 765.47,-184 765.47,-184 765.47,-184 765.47,-205.95 765.47,-205.95"/>
<polygon fill="black" stroke="black" points="761.97,-205.95 765.47,-215.95 768.97,-205.95 761.97,-205.95"/>
</g>
<!-- OnlineModule  -->
<g id="node18" class="node">
<title>OnlineModule </title>
<polygon fill="#fb8072" stroke="black" points="717.65,-252 616.35,-252 616.35,-216 717.65,-216 717.65,-252"/>
<text text-anchor="middle" x="667" y="-229.8" font-family="Times,serif" font-size="14.00">OnlineModule </text>
</g>
<!-- ToolsModule&#45;&gt;OnlineModule  -->
<g id="edge17" class="edge">
<title>ToolsModule&#45;&gt;OnlineModule </title>
<path fill="none" stroke="black" stroke-dasharray="5,2" d="M667,-187.11C667,-187.11 667,-205.99 667,-205.99"/>
<polygon fill="black" stroke="black" points="663.5,-205.99 667,-215.99 670.5,-205.99 663.5,-205.99"/>
</g>
<!-- ParamConfigModule  -->
<g id="node19" class="node">
<title>ParamConfigModule </title>
<polygon fill="#fb8072" stroke="black" points="598.7,-252 461.3,-252 461.3,-216 598.7,-216 598.7,-252"/>
<text text-anchor="middle" x="530" y="-229.8" font-family="Times,serif" font-size="14.00">ParamConfigModule </text>
</g>
<!-- ToolsModule&#45;&gt;ParamConfigModule  -->
<g id="edge18" class="edge">
<title>ToolsModule&#45;&gt;ParamConfigModule </title>
<path fill="none" stroke="black" stroke-dasharray="5,2" d="M621.23,-184C574.95,-184 510.22,-184 510.22,-184 510.22,-184 510.22,-205.95 510.22,-205.95"/>
<polygon fill="black" stroke="black" points="506.72,-205.95 510.22,-215.95 513.72,-205.95 506.72,-205.95"/>
</g>
<!-- RoleModule  -->
<g id="node20" class="node">
<title>RoleModule </title>
<polygon fill="#fb8072" stroke="black" points="442.99,-252 353.01,-252 353.01,-216 442.99,-216 442.99,-252"/>
<text text-anchor="middle" x="398" y="-229.8" font-family="Times,serif" font-size="14.00">RoleModule </text>
</g>
<!-- ToolsModule&#45;&gt;RoleModule  -->
<g id="edge19" class="edge">
<title>ToolsModule&#45;&gt;RoleModule </title>
<path fill="none" stroke="black" stroke-dasharray="5,2" d="M621.08,-181C542.1,-181 388.92,-181 388.92,-181 388.92,-181 388.92,-205.76 388.92,-205.76"/>
<polygon fill="black" stroke="black" points="385.42,-205.76 388.92,-215.76 392.42,-205.76 385.42,-205.76"/>
</g>
<!-- ServeModule  -->
<g id="node21" class="node">
<title>ServeModule </title>
<polygon fill="#fb8072" stroke="black" points="335.42,-252 240.58,-252 240.58,-216 335.42,-216 335.42,-252"/>
<text text-anchor="middle" x="288" y="-229.8" font-family="Times,serif" font-size="14.00">ServeModule </text>
</g>
<!-- ToolsModule&#45;&gt;ServeModule  -->
<g id="edge20" class="edge">
<title>ToolsModule&#45;&gt;ServeModule </title>
<path fill="none" stroke="black" stroke-dasharray="5,2" d="M621.25,-178C521.61,-178 293.88,-178 293.88,-178 293.88,-178 293.88,-205.97 293.88,-205.97"/>
<polygon fill="black" stroke="black" points="290.38,-205.97 293.88,-215.97 297.38,-205.97 290.38,-205.97"/>
</g>
<!-- TaskModule  -->
<g id="node22" class="node">
<title>TaskModule </title>
<polygon fill="#fb8072" stroke="black" points="222.26,-252 131.74,-252 131.74,-216 222.26,-216 222.26,-252"/>
<text text-anchor="middle" x="177" y="-229.8" font-family="Times,serif" font-size="14.00">TaskModule </text>
</g>
<!-- ToolsModule&#45;&gt;TaskModule  -->
<g id="edge21" class="edge">
<title>ToolsModule&#45;&gt;TaskModule </title>
<path fill="none" stroke="black" stroke-dasharray="5,2" d="M621.21,-174C500.86,-174 184.88,-174 184.88,-174 184.88,-174 184.88,-206 184.88,-206"/>
<polygon fill="black" stroke="black" points="181.38,-206 184.88,-216 188.38,-206 181.38,-206"/>
</g>
<!-- UserModule  -->
<g id="node23" class="node">
<title>UserModule </title>
<polygon fill="#fb8072" stroke="black" points="113.98,-252 24.02,-252 24.02,-216 113.98,-216 113.98,-252"/>
<text text-anchor="middle" x="69" y="-229.8" font-family="Times,serif" font-size="14.00">UserModule </text>
</g>
<!-- ToolsModule&#45;&gt;UserModule  -->
<g id="edge22" class="edge">
<title>ToolsModule&#45;&gt;UserModule </title>
<path fill="none" stroke="black" stroke-dasharray="5,2" d="M620.85,-171C482.21,-171 78.88,-171 78.88,-171 78.88,-171 78.88,-205.78 78.88,-205.78"/>
<polygon fill="black" stroke="black" points="75.38,-205.78 78.88,-215.78 82.38,-205.78 75.38,-205.78"/>
</g>
</g>
</svg>
