<?xml version="1.0" encoding="UTF-8" standalone="no"?>
<!DOCTYPE svg PUBLIC "-//W3C//DTD SVG 1.1//EN"
 "http://www.w3.org/Graphics/SVG/1.1/DTD/svg11.dtd">
<!-- Generated by graphviz version 2.47.0 (20210316.0004)
 -->
<!-- Title: dependencies Pages: 1 -->
<svg width="504pt" height="284pt"
 viewBox="0.00 0.00 504.00 284.00" xmlns="http://www.w3.org/2000/svg" xmlns:xlink="http://www.w3.org/1999/xlink">
<g id="graph0" class="graph" transform="scale(1 1) rotate(0) translate(4 280)">
<title>dependencies</title>
<polygon fill="white" stroke="transparent" points="-4,4 -4,-280 500,-280 500,4 -4,4"/>
<text text-anchor="start" x="227.01" y="-42.4" font-family="Times-12" font-weight="bold" font-size="14.00">Legend</text>
<polygon fill="#ffffb3" stroke="transparent" points="14,-10 14,-30 34,-30 34,-10 14,-10"/>
<text text-anchor="start" x="37.63" y="-15.4" font-family="Times-12" font-size="14.00"> &#160;Declarations</text>
<polygon fill="#8dd3c7" stroke="transparent" points="127,-10 127,-30 147,-30 147,-10 127,-10"/>
<text text-anchor="start" x="150.73" y="-15.4" font-family="Times-12" font-size="14.00"> &#160;Module</text>
<polygon fill="#80b1d3" stroke="transparent" points="213,-10 213,-30 233,-30 233,-10 213,-10"/>
<text text-anchor="start" x="236.78" y="-15.4" font-family="Times-12" font-size="14.00"> &#160;Bootstrap</text>
<polygon fill="#fdb462" stroke="transparent" points="310,-10 310,-30 330,-30 330,-10 310,-10"/>
<text text-anchor="start" x="333.67" y="-15.4" font-family="Times-12" font-size="14.00"> &#160;Providers</text>
<polygon fill="#fb8072" stroke="transparent" points="406,-10 406,-30 426,-30 426,-10 406,-10"/>
<text text-anchor="start" x="429.73" y="-15.4" font-family="Times-12" font-size="14.00"> &#160;Exports</text>
<g id="clust1" class="cluster">
<title>cluster_UserModule</title>
<polygon fill="none" stroke="black" stroke-dasharray="1,5" points="58,-70 58,-268 438,-268 438,-70 58,-70"/>
</g>
<g id="clust4" class="cluster">
<title>cluster_UserModule_exports</title>
<polygon fill="none" stroke="black" points="91,-208 91,-260 405,-260 405,-208 91,-208"/>
</g>
<g id="clust3" class="cluster">
<title>cluster_UserModule_imports</title>
<polygon fill="none" stroke="black" points="66,-78 66,-130 430,-130 430,-78 66,-78"/>
</g>
<!-- MenuModule -->
<g id="node1" class="node">
<title>MenuModule</title>
<polygon fill="#8dd3c7" stroke="black" points="422.21,-122 419.21,-126 398.21,-126 395.21,-122 329.79,-122 329.79,-86 422.21,-86 422.21,-122"/>
<text text-anchor="middle" x="376" y="-99.8" font-family="Times,serif" font-size="14.00">MenuModule</text>
</g>
<!-- UserModule -->
<g id="node4" class="node">
<title>UserModule</title>
<polygon fill="#8dd3c7" stroke="black" points="287.98,-187 284.98,-191 263.98,-191 260.98,-187 202.02,-187 202.02,-151 287.98,-151 287.98,-187"/>
<text text-anchor="middle" x="245" y="-164.8" font-family="Times,serif" font-size="14.00">UserModule</text>
</g>
<!-- MenuModule&#45;&gt;UserModule -->
<g id="edge1" class="edge">
<title>MenuModule&#45;&gt;UserModule</title>
<path fill="none" stroke="black" d="M363.51,-122.11C363.51,-141.34 363.51,-169 363.51,-169 363.51,-169 298.12,-169 298.12,-169"/>
<polygon fill="black" stroke="black" points="298.12,-165.5 288.12,-169 298.12,-172.5 298.12,-165.5"/>
</g>
<!-- ParamConfigModule -->
<g id="node2" class="node">
<title>ParamConfigModule</title>
<polygon fill="#8dd3c7" stroke="black" points="312.2,-122 309.2,-126 288.2,-126 285.2,-122 177.8,-122 177.8,-86 312.2,-86 312.2,-122"/>
<text text-anchor="middle" x="245" y="-99.8" font-family="Times,serif" font-size="14.00">ParamConfigModule</text>
</g>
<!-- ParamConfigModule&#45;&gt;UserModule -->
<g id="edge2" class="edge">
<title>ParamConfigModule&#45;&gt;UserModule</title>
<path fill="none" stroke="black" d="M245,-122.11C245,-122.11 245,-140.99 245,-140.99"/>
<polygon fill="black" stroke="black" points="241.5,-140.99 245,-150.99 248.5,-140.99 241.5,-140.99"/>
</g>
<!-- RoleModule -->
<g id="node3" class="node">
<title>RoleModule</title>
<polygon fill="#8dd3c7" stroke="black" points="159.99,-122 156.99,-126 135.99,-126 132.99,-122 74.01,-122 74.01,-86 159.99,-86 159.99,-122"/>
<text text-anchor="middle" x="117" y="-99.8" font-family="Times,serif" font-size="14.00">RoleModule</text>
</g>
<!-- RoleModule&#45;&gt;UserModule -->
<g id="edge3" class="edge">
<title>RoleModule&#45;&gt;UserModule</title>
<path fill="none" stroke="black" d="M129.55,-122.11C129.55,-141.34 129.55,-169 129.55,-169 129.55,-169 192.01,-169 192.01,-169"/>
<polygon fill="black" stroke="black" points="192.01,-172.5 202.01,-169 192.01,-165.5 192.01,-172.5"/>
</g>
<!-- AdminEventsGateway  -->
<g id="node5" class="node">
<title>AdminEventsGateway </title>
<polygon fill="#fb8072" stroke="black" points="397.24,-252 250.76,-252 250.76,-216 397.24,-216 397.24,-252"/>
<text text-anchor="middle" x="324" y="-229.8" font-family="Times,serif" font-size="14.00">AdminEventsGateway </text>
</g>
<!-- UserModule&#45;&gt;AdminEventsGateway  -->
<g id="edge4" class="edge">
<title>UserModule&#45;&gt;AdminEventsGateway </title>
<path fill="none" stroke="black" stroke-dasharray="5,2" d="M269.43,-187.11C269.43,-187.11 269.43,-205.99 269.43,-205.99"/>
<polygon fill="black" stroke="black" points="265.93,-205.99 269.43,-215.99 272.93,-205.99 265.93,-205.99"/>
</g>
<!-- WebEventsGateway  -->
<g id="node6" class="node">
<title>WebEventsGateway </title>
<polygon fill="#fb8072" stroke="black" points="232.78,-252 99.22,-252 99.22,-216 232.78,-216 232.78,-252"/>
<text text-anchor="middle" x="166" y="-229.8" font-family="Times,serif" font-size="14.00">WebEventsGateway </text>
</g>
<!-- UserModule&#45;&gt;WebEventsGateway  -->
<g id="edge5" class="edge">
<title>UserModule&#45;&gt;WebEventsGateway </title>
<path fill="none" stroke="black" stroke-dasharray="5,2" d="M217.45,-187.11C217.45,-187.11 217.45,-205.99 217.45,-205.99"/>
<polygon fill="black" stroke="black" points="213.95,-205.99 217.45,-215.99 220.95,-205.99 213.95,-205.99"/>
</g>
</g>
</svg>
