<?xml version="1.0" encoding="UTF-8" standalone="no"?>
<!DOCTYPE svg PUBLIC "-//W3C//DTD SVG 1.1//EN"
 "http://www.w3.org/Graphics/SVG/1.1/DTD/svg11.dtd">
<!-- Generated by graphviz version 2.47.0 (20210316.0004)
 -->
<!-- Title: dependencies Pages: 1 -->
<svg width="504pt" height="284pt"
 viewBox="0.00 0.00 504.00 284.00" xmlns="http://www.w3.org/2000/svg" xmlns:xlink="http://www.w3.org/1999/xlink">
<g id="graph0" class="graph" transform="scale(1 1) rotate(0) translate(4 280)">
<title>dependencies</title>
<polygon fill="white" stroke="transparent" points="-4,4 -4,-280 500,-280 500,4 -4,4"/>
<text text-anchor="start" x="227.01" y="-42.4" font-family="Times-12" font-weight="bold" font-size="14.00">Legend</text>
<polygon fill="#ffffb3" stroke="transparent" points="14,-10 14,-30 34,-30 34,-10 14,-10"/>
<text text-anchor="start" x="37.63" y="-15.4" font-family="Times-12" font-size="14.00"> &#160;Declarations</text>
<polygon fill="#8dd3c7" stroke="transparent" points="127,-10 127,-30 147,-30 147,-10 127,-10"/>
<text text-anchor="start" x="150.73" y="-15.4" font-family="Times-12" font-size="14.00"> &#160;Module</text>
<polygon fill="#80b1d3" stroke="transparent" points="213,-10 213,-30 233,-30 233,-10 213,-10"/>
<text text-anchor="start" x="236.78" y="-15.4" font-family="Times-12" font-size="14.00"> &#160;Bootstrap</text>
<polygon fill="#fdb462" stroke="transparent" points="310,-10 310,-30 330,-30 330,-10 310,-10"/>
<text text-anchor="start" x="333.67" y="-15.4" font-family="Times-12" font-size="14.00"> &#160;Providers</text>
<polygon fill="#fb8072" stroke="transparent" points="406,-10 406,-30 426,-30 426,-10 406,-10"/>
<text text-anchor="start" x="429.73" y="-15.4" font-family="Times-12" font-size="14.00"> &#160;Exports</text>
<g id="clust1" class="cluster">
<title>cluster_OnlineModule</title>
<polygon fill="none" stroke="black" stroke-dasharray="1,5" points="58,-70 58,-268 438,-268 438,-70 58,-70"/>
</g>
<g id="clust4" class="cluster">
<title>cluster_OnlineModule_exports</title>
<polygon fill="none" stroke="black" points="91,-208 91,-260 405,-260 405,-208 91,-208"/>
</g>
<g id="clust6" class="cluster">
<title>cluster_OnlineModule_providers</title>
<polygon fill="none" stroke="black" points="282,-78 282,-130 430,-130 430,-78 282,-78"/>
</g>
<g id="clust3" class="cluster">
<title>cluster_OnlineModule_imports</title>
<polygon fill="none" stroke="black" points="66,-78 66,-130 274,-130 274,-78 66,-78"/>
</g>
<!-- AuthModule -->
<g id="node1" class="node">
<title>AuthModule</title>
<polygon fill="#8dd3c7" stroke="black" points="265.55,-122 262.55,-126 241.55,-126 238.55,-122 178.45,-122 178.45,-86 265.55,-86 265.55,-122"/>
<text text-anchor="middle" x="222" y="-99.8" font-family="Times,serif" font-size="14.00">AuthModule</text>
</g>
<!-- OnlineModule -->
<g id="node3" class="node">
<title>OnlineModule</title>
<polygon fill="#8dd3c7" stroke="black" points="270.65,-187 267.65,-191 246.65,-191 243.65,-187 173.35,-187 173.35,-151 270.65,-151 270.65,-187"/>
<text text-anchor="middle" x="222" y="-164.8" font-family="Times,serif" font-size="14.00">OnlineModule</text>
</g>
<!-- AuthModule&#45;&gt;OnlineModule -->
<g id="edge1" class="edge">
<title>AuthModule&#45;&gt;OnlineModule</title>
<path fill="none" stroke="black" d="M222,-122.11C222,-122.11 222,-140.99 222,-140.99"/>
<polygon fill="black" stroke="black" points="218.5,-140.99 222,-150.99 225.5,-140.99 218.5,-140.99"/>
</g>
<!-- UserModule -->
<g id="node2" class="node">
<title>UserModule</title>
<polygon fill="#8dd3c7" stroke="black" points="159.98,-122 156.98,-126 135.98,-126 132.98,-122 74.02,-122 74.02,-86 159.98,-86 159.98,-122"/>
<text text-anchor="middle" x="117" y="-99.8" font-family="Times,serif" font-size="14.00">UserModule</text>
</g>
<!-- UserModule&#45;&gt;OnlineModule -->
<g id="edge2" class="edge">
<title>UserModule&#45;&gt;OnlineModule</title>
<path fill="none" stroke="black" d="M129.55,-122.11C129.55,-141.34 129.55,-169 129.55,-169 129.55,-169 163.34,-169 163.34,-169"/>
<polygon fill="black" stroke="black" points="163.34,-172.5 173.34,-169 163.34,-165.5 163.34,-172.5"/>
</g>
<!-- AdminEventsGateway  -->
<g id="node4" class="node">
<title>AdminEventsGateway </title>
<polygon fill="#fb8072" stroke="black" points="397.24,-252 250.76,-252 250.76,-216 397.24,-216 397.24,-252"/>
<text text-anchor="middle" x="324" y="-229.8" font-family="Times,serif" font-size="14.00">AdminEventsGateway </text>
</g>
<!-- OnlineModule&#45;&gt;AdminEventsGateway  -->
<g id="edge3" class="edge">
<title>OnlineModule&#45;&gt;AdminEventsGateway </title>
<path fill="none" stroke="black" stroke-dasharray="5,2" d="M260.85,-187.11C260.85,-187.11 260.85,-205.99 260.85,-205.99"/>
<polygon fill="black" stroke="black" points="257.35,-205.99 260.85,-215.99 264.35,-205.99 257.35,-205.99"/>
</g>
<!-- WebEventsGateway  -->
<g id="node5" class="node">
<title>WebEventsGateway </title>
<polygon fill="#fb8072" stroke="black" points="232.78,-252 99.22,-252 99.22,-216 232.78,-216 232.78,-252"/>
<text text-anchor="middle" x="166" y="-229.8" font-family="Times,serif" font-size="14.00">WebEventsGateway </text>
</g>
<!-- OnlineModule&#45;&gt;WebEventsGateway  -->
<g id="edge4" class="edge">
<title>OnlineModule&#45;&gt;WebEventsGateway </title>
<path fill="none" stroke="black" stroke-dasharray="5,2" d="M203.03,-187.11C203.03,-187.11 203.03,-205.99 203.03,-205.99"/>
<polygon fill="black" stroke="black" points="199.53,-205.99 203.03,-215.99 206.53,-205.99 199.53,-205.99"/>
</g>
<!-- OnlineService -->
<g id="node6" class="node">
<title>OnlineService</title>
<ellipse fill="#fdb462" stroke="black" cx="356" cy="-104" rx="66.05" ry="18"/>
<text text-anchor="middle" x="356" y="-99.8" font-family="Times,serif" font-size="14.00">OnlineService</text>
</g>
<!-- OnlineService&#45;&gt;OnlineModule -->
<g id="edge5" class="edge">
<title>OnlineService&#45;&gt;OnlineModule</title>
<path fill="none" stroke="black" d="M343.42,-121.76C343.42,-141.01 343.42,-169 343.42,-169 343.42,-169 280.69,-169 280.69,-169"/>
<polygon fill="black" stroke="black" points="280.69,-165.5 270.69,-169 280.69,-172.5 280.69,-165.5"/>
</g>
</g>
</svg>
