<?xml version="1.0" encoding="UTF-8" standalone="no"?>
<!DOCTYPE svg PUBLIC "-//W3C//DTD SVG 1.1//EN"
 "http://www.w3.org/Graphics/SVG/1.1/DTD/svg11.dtd">
<!-- Generated by graphviz version 2.47.0 (20210316.0004)
 -->
<!-- Title: dependencies Pages: 1 -->
<svg width="1873pt" height="211pt"
 viewBox="0.00 0.00 1873.00 211.00" xmlns="http://www.w3.org/2000/svg" xmlns:xlink="http://www.w3.org/1999/xlink">
<g id="graph0" class="graph" transform="scale(1 1) rotate(0) translate(4 207)">
<title>dependencies</title>
<polygon fill="white" stroke="transparent" points="-4,4 -4,-207 1869,-207 1869,4 -4,4"/>
<text text-anchor="start" x="911.51" y="-42.4" font-family="Times-12" font-weight="bold" font-size="14.00">Legend</text>
<polygon fill="#ffffb3" stroke="transparent" points="698.5,-10 698.5,-30 718.5,-30 718.5,-10 698.5,-10"/>
<text text-anchor="start" x="722.13" y="-15.4" font-family="Times-12" font-size="14.00"> &#160;Declarations</text>
<polygon fill="#8dd3c7" stroke="transparent" points="811.5,-10 811.5,-30 831.5,-30 831.5,-10 811.5,-10"/>
<text text-anchor="start" x="835.23" y="-15.4" font-family="Times-12" font-size="14.00"> &#160;Module</text>
<polygon fill="#80b1d3" stroke="transparent" points="897.5,-10 897.5,-30 917.5,-30 917.5,-10 897.5,-10"/>
<text text-anchor="start" x="921.28" y="-15.4" font-family="Times-12" font-size="14.00"> &#160;Bootstrap</text>
<polygon fill="#fdb462" stroke="transparent" points="994.5,-10 994.5,-30 1014.5,-30 1014.5,-10 994.5,-10"/>
<text text-anchor="start" x="1018.17" y="-15.4" font-family="Times-12" font-size="14.00"> &#160;Providers</text>
<polygon fill="#fb8072" stroke="transparent" points="1090.5,-10 1090.5,-30 1110.5,-30 1110.5,-10 1090.5,-10"/>
<text text-anchor="start" x="1114.23" y="-15.4" font-family="Times-12" font-size="14.00"> &#160;Exports</text>
<g id="clust1" class="cluster">
<title>cluster_AppModule</title>
<polygon fill="none" stroke="black" stroke-dasharray="1,5" points="8,-70 8,-195 1857,-195 1857,-70 8,-70"/>
</g>
<g id="clust3" class="cluster">
<title>cluster_AppModule_imports</title>
<polygon fill="none" stroke="black" points="606,-78 606,-130 1849,-130 1849,-78 606,-78"/>
</g>
<g id="clust6" class="cluster">
<title>cluster_AppModule_providers</title>
<polygon fill="none" stroke="black" points="16,-78 16,-130 598,-130 598,-78 16,-78"/>
</g>
<!-- AuthModule -->
<g id="node1" class="node">
<title>AuthModule</title>
<polygon fill="#8dd3c7" stroke="black" points="1840.55,-122 1837.55,-126 1816.55,-126 1813.55,-122 1753.45,-122 1753.45,-86 1840.55,-86 1840.55,-122"/>
<text text-anchor="middle" x="1797" y="-99.8" font-family="Times,serif" font-size="14.00">AuthModule</text>
</g>
<!-- AppModule -->
<g id="node12" class="node">
<title>AppModule</title>
<polygon fill="#8dd3c7" stroke="black" points="1086.66,-187 1083.66,-191 1062.66,-191 1059.66,-187 1003.34,-187 1003.34,-151 1086.66,-151 1086.66,-187"/>
<text text-anchor="middle" x="1045" y="-164.8" font-family="Times,serif" font-size="14.00">AppModule</text>
</g>
<!-- AuthModule&#45;&gt;AppModule -->
<g id="edge1" class="edge">
<title>AuthModule&#45;&gt;AppModule</title>
<path fill="none" stroke="black" d="M1797,-122.09C1797,-145.13 1797,-182 1797,-182 1797,-182 1096.77,-182 1096.77,-182"/>
<polygon fill="black" stroke="black" points="1096.77,-178.5 1086.77,-182 1096.77,-185.5 1096.77,-178.5"/>
</g>
<!-- DatabaseModule -->
<g id="node2" class="node">
<title>DatabaseModule</title>
<polygon fill="#8dd3c7" stroke="black" points="1735.35,-122 1732.35,-126 1711.35,-126 1708.35,-122 1624.65,-122 1624.65,-86 1735.35,-86 1735.35,-122"/>
<text text-anchor="middle" x="1680" y="-99.8" font-family="Times,serif" font-size="14.00">DatabaseModule</text>
</g>
<!-- DatabaseModule&#45;&gt;AppModule -->
<g id="edge2" class="edge">
<title>DatabaseModule&#45;&gt;AppModule</title>
<path fill="none" stroke="black" d="M1680,-122.04C1680,-143.66 1680,-177 1680,-177 1680,-177 1096.66,-177 1096.66,-177"/>
<polygon fill="black" stroke="black" points="1096.66,-173.5 1086.66,-177 1096.66,-180.5 1096.66,-173.5"/>
</g>
<!-- HealthModule -->
<g id="node3" class="node">
<title>HealthModule</title>
<polygon fill="#8dd3c7" stroke="black" points="1606.37,-122 1603.37,-126 1582.37,-126 1579.37,-122 1509.63,-122 1509.63,-86 1606.37,-86 1606.37,-122"/>
<text text-anchor="middle" x="1558" y="-99.8" font-family="Times,serif" font-size="14.00">HealthModule</text>
</g>
<!-- HealthModule&#45;&gt;AppModule -->
<g id="edge3" class="edge">
<title>HealthModule&#45;&gt;AppModule</title>
<path fill="none" stroke="black" d="M1558,-122.22C1558,-142.37 1558,-172 1558,-172 1558,-172 1096.98,-172 1096.98,-172"/>
<polygon fill="black" stroke="black" points="1096.98,-168.5 1086.98,-172 1096.98,-175.5 1096.98,-168.5"/>
</g>
<!-- NetdiskModule -->
<g id="node4" class="node">
<title>NetdiskModule</title>
<polygon fill="#8dd3c7" stroke="black" points="1491.6,-122 1488.6,-126 1467.6,-126 1464.6,-122 1388.4,-122 1388.4,-86 1491.6,-86 1491.6,-122"/>
<text text-anchor="middle" x="1440" y="-99.8" font-family="Times,serif" font-size="14.00">NetdiskModule</text>
</g>
<!-- NetdiskModule&#45;&gt;AppModule -->
<g id="edge4" class="edge">
<title>NetdiskModule&#45;&gt;AppModule</title>
<path fill="none" stroke="black" d="M1440,-122.22C1440,-140.83 1440,-167 1440,-167 1440,-167 1096.9,-167 1096.9,-167"/>
<polygon fill="black" stroke="black" points="1096.9,-163.5 1086.9,-167 1096.9,-170.5 1096.9,-163.5"/>
</g>
<!-- SharedModule -->
<g id="node5" class="node">
<title>SharedModule</title>
<polygon fill="#8dd3c7" stroke="black" points="1370.42,-122 1367.42,-126 1346.42,-126 1343.42,-122 1271.58,-122 1271.58,-86 1370.42,-86 1370.42,-122"/>
<text text-anchor="middle" x="1321" y="-99.8" font-family="Times,serif" font-size="14.00">SharedModule</text>
</g>
<!-- SharedModule&#45;&gt;AppModule -->
<g id="edge5" class="edge">
<title>SharedModule&#45;&gt;AppModule</title>
<path fill="none" stroke="black" d="M1321,-122.03C1321,-139.06 1321,-162 1321,-162 1321,-162 1096.92,-162 1096.92,-162"/>
<polygon fill="black" stroke="black" points="1096.92,-158.5 1086.92,-162 1096.92,-165.5 1096.92,-158.5"/>
</g>
<!-- SocketModule -->
<g id="node6" class="node">
<title>SocketModule</title>
<polygon fill="#8dd3c7" stroke="black" points="1253.65,-122 1250.65,-126 1229.65,-126 1226.65,-122 1156.35,-122 1156.35,-86 1253.65,-86 1253.65,-122"/>
<text text-anchor="middle" x="1205" y="-99.8" font-family="Times,serif" font-size="14.00">SocketModule</text>
</g>
<!-- SocketModule&#45;&gt;AppModule -->
<g id="edge6" class="edge">
<title>SocketModule&#45;&gt;AppModule</title>
<path fill="none" stroke="black" d="M1205,-122.24C1205,-137.57 1205,-157 1205,-157 1205,-157 1097.04,-157 1097.04,-157"/>
<polygon fill="black" stroke="black" points="1097.04,-153.5 1087.04,-157 1097.04,-160.5 1097.04,-153.5"/>
</g>
<!-- SseModule -->
<g id="node7" class="node">
<title>SseModule</title>
<polygon fill="#8dd3c7" stroke="black" points="1138.49,-122 1135.49,-126 1114.49,-126 1111.49,-122 1059.51,-122 1059.51,-86 1138.49,-86 1138.49,-122"/>
<text text-anchor="middle" x="1099" y="-99.8" font-family="Times,serif" font-size="14.00">SseModule</text>
</g>
<!-- SseModule&#45;&gt;AppModule -->
<g id="edge7" class="edge">
<title>SseModule&#45;&gt;AppModule</title>
<path fill="none" stroke="black" d="M1073.17,-122.11C1073.17,-122.11 1073.17,-140.99 1073.17,-140.99"/>
<polygon fill="black" stroke="black" points="1069.67,-140.99 1073.17,-150.99 1076.67,-140.99 1069.67,-140.99"/>
</g>
<!-- SystemModule -->
<g id="node8" class="node">
<title>SystemModule</title>
<polygon fill="#8dd3c7" stroke="black" points="1041.27,-122 1038.27,-126 1017.27,-126 1014.27,-122 940.73,-122 940.73,-86 1041.27,-86 1041.27,-122"/>
<text text-anchor="middle" x="991" y="-99.8" font-family="Times,serif" font-size="14.00">SystemModule</text>
</g>
<!-- SystemModule&#45;&gt;AppModule -->
<g id="edge8" class="edge">
<title>SystemModule&#45;&gt;AppModule</title>
<path fill="none" stroke="black" d="M1022.28,-122.11C1022.28,-122.11 1022.28,-140.99 1022.28,-140.99"/>
<polygon fill="black" stroke="black" points="1018.78,-140.99 1022.28,-150.99 1025.78,-140.99 1018.78,-140.99"/>
</g>
<!-- TasksModule -->
<g id="node9" class="node">
<title>TasksModule</title>
<polygon fill="#8dd3c7" stroke="black" points="923.21,-122 920.21,-126 899.21,-126 896.21,-122 830.79,-122 830.79,-86 923.21,-86 923.21,-122"/>
<text text-anchor="middle" x="877" y="-99.8" font-family="Times,serif" font-size="14.00">TasksModule</text>
</g>
<!-- TasksModule&#45;&gt;AppModule -->
<g id="edge9" class="edge">
<title>TasksModule&#45;&gt;AppModule</title>
<path fill="none" stroke="black" d="M877,-122.24C877,-137.57 877,-157 877,-157 877,-157 993.04,-157 993.04,-157"/>
<polygon fill="black" stroke="black" points="993.04,-160.5 1003.04,-157 993.04,-153.5 993.04,-160.5"/>
</g>
<!-- TodoModule -->
<g id="node10" class="node">
<title>TodoModule</title>
<polygon fill="#8dd3c7" stroke="black" points="812.6,-122 809.6,-126 788.6,-126 785.6,-122 723.4,-122 723.4,-86 812.6,-86 812.6,-122"/>
<text text-anchor="middle" x="768" y="-99.8" font-family="Times,serif" font-size="14.00">TodoModule</text>
</g>
<!-- TodoModule&#45;&gt;AppModule -->
<g id="edge10" class="edge">
<title>TodoModule&#45;&gt;AppModule</title>
<path fill="none" stroke="black" d="M768,-122.03C768,-139.06 768,-162 768,-162 768,-162 993.23,-162 993.23,-162"/>
<polygon fill="black" stroke="black" points="993.23,-165.5 1003.23,-162 993.23,-158.5 993.23,-165.5"/>
</g>
<!-- ToolsModule -->
<g id="node11" class="node">
<title>ToolsModule</title>
<polygon fill="#8dd3c7" stroke="black" points="705.94,-122 702.94,-126 681.94,-126 678.94,-122 614.06,-122 614.06,-86 705.94,-86 705.94,-122"/>
<text text-anchor="middle" x="660" y="-99.8" font-family="Times,serif" font-size="14.00">ToolsModule</text>
</g>
<!-- ToolsModule&#45;&gt;AppModule -->
<g id="edge11" class="edge">
<title>ToolsModule&#45;&gt;AppModule</title>
<path fill="none" stroke="black" d="M660,-122.22C660,-140.83 660,-167 660,-167 660,-167 993.07,-167 993.07,-167"/>
<polygon fill="black" stroke="black" points="993.07,-170.5 1003.07,-167 993.07,-163.5 993.07,-170.5"/>
</g>
<!-- IdempotenceInterceptor -->
<g id="node13" class="node">
<title>IdempotenceInterceptor</title>
<ellipse fill="#fdb462" stroke="black" cx="487" cy="-104" rx="103.03" ry="18"/>
<text text-anchor="middle" x="487" y="-99.8" font-family="Times,serif" font-size="14.00">IdempotenceInterceptor</text>
</g>
<!-- IdempotenceInterceptor&#45;&gt;AppModule -->
<g id="edge12" class="edge">
<title>IdempotenceInterceptor&#45;&gt;AppModule</title>
<path fill="none" stroke="black" d="M487,-122.22C487,-142.37 487,-172 487,-172 487,-172 993.06,-172 993.06,-172"/>
<polygon fill="black" stroke="black" points="993.06,-175.5 1003.06,-172 993.06,-168.5 993.06,-175.5"/>
</g>
<!-- JwtAuthGuard -->
<g id="node14" class="node">
<title>JwtAuthGuard</title>
<ellipse fill="#fdb462" stroke="black" cx="298" cy="-104" rx="67.78" ry="18"/>
<text text-anchor="middle" x="298" y="-99.8" font-family="Times,serif" font-size="14.00">JwtAuthGuard</text>
</g>
<!-- JwtAuthGuard&#45;&gt;AppModule -->
<g id="edge13" class="edge">
<title>JwtAuthGuard&#45;&gt;AppModule</title>
<path fill="none" stroke="black" d="M298,-122.04C298,-143.66 298,-177 298,-177 298,-177 993.24,-177 993.24,-177"/>
<polygon fill="black" stroke="black" points="993.24,-180.5 1003.24,-177 993.24,-173.5 993.24,-180.5"/>
</g>
<!-- TransformInterceptor -->
<g id="node15" class="node">
<title>TransformInterceptor</title>
<ellipse fill="#fdb462" stroke="black" cx="118" cy="-104" rx="94.3" ry="18"/>
<text text-anchor="middle" x="118" y="-99.8" font-family="Times,serif" font-size="14.00">TransformInterceptor</text>
</g>
<!-- TransformInterceptor&#45;&gt;AppModule -->
<g id="edge14" class="edge">
<title>TransformInterceptor&#45;&gt;AppModule</title>
<path fill="none" stroke="black" d="M118,-122.09C118,-145.13 118,-182 118,-182 118,-182 993.06,-182 993.06,-182"/>
<polygon fill="black" stroke="black" points="993.06,-185.5 1003.06,-182 993.06,-178.5 993.06,-185.5"/>
</g>
</g>
</svg>
