<?xml version="1.0" encoding="UTF-8" standalone="no"?>
<!DOCTYPE svg PUBLIC "-//W3C//DTD SVG 1.1//EN"
 "http://www.w3.org/Graphics/SVG/1.1/DTD/svg11.dtd">
<!-- Generated by graphviz version 2.47.0 (20210316.0004)
 -->
<!-- Title: dependencies Pages: 1 -->
<svg width="504pt" height="284pt"
 viewBox="0.00 0.00 504.00 284.00" xmlns="http://www.w3.org/2000/svg" xmlns:xlink="http://www.w3.org/1999/xlink">
<g id="graph0" class="graph" transform="scale(1 1) rotate(0) translate(4 280)">
<title>dependencies</title>
<polygon fill="white" stroke="transparent" points="-4,4 -4,-280 500,-280 500,4 -4,4"/>
<text text-anchor="start" x="227.01" y="-42.4" font-family="Times-12" font-weight="bold" font-size="14.00">Legend</text>
<polygon fill="#ffffb3" stroke="transparent" points="14,-10 14,-30 34,-30 34,-10 14,-10"/>
<text text-anchor="start" x="37.63" y="-15.4" font-family="Times-12" font-size="14.00"> &#160;Declarations</text>
<polygon fill="#8dd3c7" stroke="transparent" points="127,-10 127,-30 147,-30 147,-10 127,-10"/>
<text text-anchor="start" x="150.73" y="-15.4" font-family="Times-12" font-size="14.00"> &#160;Module</text>
<polygon fill="#80b1d3" stroke="transparent" points="213,-10 213,-30 233,-30 233,-10 213,-10"/>
<text text-anchor="start" x="236.78" y="-15.4" font-family="Times-12" font-size="14.00"> &#160;Bootstrap</text>
<polygon fill="#fdb462" stroke="transparent" points="310,-10 310,-30 330,-30 330,-10 310,-10"/>
<text text-anchor="start" x="333.67" y="-15.4" font-family="Times-12" font-size="14.00"> &#160;Providers</text>
<polygon fill="#fb8072" stroke="transparent" points="406,-10 406,-30 426,-30 426,-10 406,-10"/>
<text text-anchor="start" x="429.73" y="-15.4" font-family="Times-12" font-size="14.00"> &#160;Exports</text>
<g id="clust1" class="cluster">
<title>cluster_SseModule</title>
<polygon fill="none" stroke="black" stroke-dasharray="1,5" points="118,-70 118,-268 378,-268 378,-70 118,-70"/>
</g>
<g id="clust3" class="cluster">
<title>cluster_SseModule_imports</title>
<polygon fill="none" stroke="black" points="256,-78 256,-130 370,-130 370,-78 256,-78"/>
</g>
<g id="clust6" class="cluster">
<title>cluster_SseModule_providers</title>
<polygon fill="none" stroke="black" points="126,-78 126,-130 248,-130 248,-78 126,-78"/>
</g>
<g id="clust4" class="cluster">
<title>cluster_SseModule_exports</title>
<polygon fill="none" stroke="black" points="202,-208 202,-260 298,-260 298,-208 202,-208"/>
</g>
<!-- OnlineModule -->
<g id="node1" class="node">
<title>OnlineModule</title>
<polygon fill="#8dd3c7" stroke="black" points="361.65,-122 358.65,-126 337.65,-126 334.65,-122 264.35,-122 264.35,-86 361.65,-86 361.65,-122"/>
<text text-anchor="middle" x="313" y="-99.8" font-family="Times,serif" font-size="14.00">OnlineModule</text>
</g>
<!-- SseModule -->
<g id="node2" class="node">
<title>SseModule</title>
<polygon fill="#8dd3c7" stroke="black" points="289.49,-187 286.49,-191 265.49,-191 262.49,-187 210.51,-187 210.51,-151 289.49,-151 289.49,-187"/>
<text text-anchor="middle" x="250" y="-164.8" font-family="Times,serif" font-size="14.00">SseModule</text>
</g>
<!-- OnlineModule&#45;&gt;SseModule -->
<g id="edge1" class="edge">
<title>OnlineModule&#45;&gt;SseModule</title>
<path fill="none" stroke="black" d="M276.83,-122.11C276.83,-122.11 276.83,-140.99 276.83,-140.99"/>
<polygon fill="black" stroke="black" points="273.33,-140.99 276.83,-150.99 280.33,-140.99 273.33,-140.99"/>
</g>
<!-- SseService  -->
<g id="node3" class="node">
<title>SseService </title>
<polygon fill="#fb8072" stroke="black" points="290.42,-252 209.58,-252 209.58,-216 290.42,-216 290.42,-252"/>
<text text-anchor="middle" x="250" y="-229.8" font-family="Times,serif" font-size="14.00">SseService </text>
</g>
<!-- SseModule&#45;&gt;SseService  -->
<g id="edge2" class="edge">
<title>SseModule&#45;&gt;SseService </title>
<path fill="none" stroke="black" stroke-dasharray="5,2" d="M250,-187.11C250,-187.11 250,-205.99 250,-205.99"/>
<polygon fill="black" stroke="black" points="246.5,-205.99 250,-215.99 253.5,-205.99 246.5,-205.99"/>
</g>
<!-- SseService -->
<g id="node4" class="node">
<title>SseService</title>
<ellipse fill="#fdb462" stroke="black" cx="187" cy="-104" rx="53.31" ry="18"/>
<text text-anchor="middle" x="187" y="-99.8" font-family="Times,serif" font-size="14.00">SseService</text>
</g>
<!-- SseService&#45;&gt;SseModule -->
<g id="edge3" class="edge">
<title>SseService&#45;&gt;SseModule</title>
<path fill="none" stroke="black" d="M225.45,-116.53C225.45,-116.53 225.45,-140.85 225.45,-140.85"/>
<polygon fill="black" stroke="black" points="221.95,-140.85 225.45,-150.85 228.95,-140.85 221.95,-140.85"/>
</g>
</g>
</svg>
