<?xml version="1.0" encoding="UTF-8" standalone="no"?>
<!DOCTYPE svg PUBLIC "-//W3C//DTD SVG 1.1//EN"
 "http://www.w3.org/Graphics/SVG/1.1/DTD/svg11.dtd">
<!-- Generated by graphviz version 2.47.0 (20210316.0004)
 -->
<!-- Title: dependencies Pages: 1 -->
<svg width="611pt" height="211pt"
 viewBox="0.00 0.00 611.00 211.00" xmlns="http://www.w3.org/2000/svg" xmlns:xlink="http://www.w3.org/1999/xlink">
<g id="graph0" class="graph" transform="scale(1 1) rotate(0) translate(4 207)">
<title>dependencies</title>
<polygon fill="white" stroke="transparent" points="-4,4 -4,-207 607,-207 607,4 -4,4"/>
<text text-anchor="start" x="280.51" y="-42.4" font-family="Times-12" font-weight="bold" font-size="14.00">Legend</text>
<polygon fill="#ffffb3" stroke="transparent" points="67.5,-10 67.5,-30 87.5,-30 87.5,-10 67.5,-10"/>
<text text-anchor="start" x="91.13" y="-15.4" font-family="Times-12" font-size="14.00"> &#160;Declarations</text>
<polygon fill="#8dd3c7" stroke="transparent" points="180.5,-10 180.5,-30 200.5,-30 200.5,-10 180.5,-10"/>
<text text-anchor="start" x="204.23" y="-15.4" font-family="Times-12" font-size="14.00"> &#160;Module</text>
<polygon fill="#80b1d3" stroke="transparent" points="266.5,-10 266.5,-30 286.5,-30 286.5,-10 266.5,-10"/>
<text text-anchor="start" x="290.28" y="-15.4" font-family="Times-12" font-size="14.00"> &#160;Bootstrap</text>
<polygon fill="#fdb462" stroke="transparent" points="363.5,-10 363.5,-30 383.5,-30 383.5,-10 363.5,-10"/>
<text text-anchor="start" x="387.17" y="-15.4" font-family="Times-12" font-size="14.00"> &#160;Providers</text>
<polygon fill="#fb8072" stroke="transparent" points="459.5,-10 459.5,-30 479.5,-30 479.5,-10 459.5,-10"/>
<text text-anchor="start" x="483.23" y="-15.4" font-family="Times-12" font-size="14.00"> &#160;Exports</text>
<g id="clust1" class="cluster">
<title>cluster_NetdiskModule</title>
<polygon fill="none" stroke="black" stroke-dasharray="1,5" points="8,-70 8,-195 595,-195 595,-70 8,-70"/>
</g>
<g id="clust6" class="cluster">
<title>cluster_NetdiskModule_providers</title>
<polygon fill="none" stroke="black" points="126,-78 126,-130 587,-130 587,-78 126,-78"/>
</g>
<g id="clust3" class="cluster">
<title>cluster_NetdiskModule_imports</title>
<polygon fill="none" stroke="black" points="16,-78 16,-130 118,-130 118,-78 16,-78"/>
</g>
<!-- UserModule -->
<g id="node1" class="node">
<title>UserModule</title>
<polygon fill="#8dd3c7" stroke="black" points="109.98,-122 106.98,-126 85.98,-126 82.98,-122 24.02,-122 24.02,-86 109.98,-86 109.98,-122"/>
<text text-anchor="middle" x="67" y="-99.8" font-family="Times,serif" font-size="14.00">UserModule</text>
</g>
<!-- NetdiskModule -->
<g id="node2" class="node">
<title>NetdiskModule</title>
<polygon fill="#8dd3c7" stroke="black" points="295.6,-187 292.6,-191 271.6,-191 268.6,-187 192.4,-187 192.4,-151 295.6,-151 295.6,-187"/>
<text text-anchor="middle" x="244" y="-164.8" font-family="Times,serif" font-size="14.00">NetdiskModule</text>
</g>
<!-- UserModule&#45;&gt;NetdiskModule -->
<g id="edge1" class="edge">
<title>UserModule&#45;&gt;NetdiskModule</title>
<path fill="none" stroke="black" d="M67,-122.11C67,-141.34 67,-169 67,-169 67,-169 182.33,-169 182.33,-169"/>
<polygon fill="black" stroke="black" points="182.33,-172.5 192.33,-169 182.33,-165.5 182.33,-172.5"/>
</g>
<!-- NetDiskManageService -->
<g id="node3" class="node">
<title>NetDiskManageService</title>
<ellipse fill="#fdb462" stroke="black" cx="476" cy="-104" rx="103.05" ry="18"/>
<text text-anchor="middle" x="476" y="-99.8" font-family="Times,serif" font-size="14.00">NetDiskManageService</text>
</g>
<!-- NetDiskManageService&#45;&gt;NetdiskModule -->
<g id="edge2" class="edge">
<title>NetDiskManageService&#45;&gt;NetdiskModule</title>
<path fill="none" stroke="black" d="M476,-122.11C476,-141.34 476,-169 476,-169 476,-169 305.78,-169 305.78,-169"/>
<polygon fill="black" stroke="black" points="305.78,-165.5 295.78,-169 305.78,-172.5 305.78,-165.5"/>
</g>
<!-- NetDiskOverviewService -->
<g id="node4" class="node">
<title>NetDiskOverviewService</title>
<ellipse fill="#fdb462" stroke="black" cx="244" cy="-104" rx="110.49" ry="18"/>
<text text-anchor="middle" x="244" y="-99.8" font-family="Times,serif" font-size="14.00">NetDiskOverviewService</text>
</g>
<!-- NetDiskOverviewService&#45;&gt;NetdiskModule -->
<g id="edge3" class="edge">
<title>NetDiskOverviewService&#45;&gt;NetdiskModule</title>
<path fill="none" stroke="black" d="M244,-122.11C244,-122.11 244,-140.99 244,-140.99"/>
<polygon fill="black" stroke="black" points="240.5,-140.99 244,-150.99 247.5,-140.99 240.5,-140.99"/>
</g>
</g>
</svg>
