<?xml version="1.0" encoding="UTF-8" standalone="no"?>
<!DOCTYPE svg PUBLIC "-//W3C//DTD SVG 1.1//EN"
 "http://www.w3.org/Graphics/SVG/1.1/DTD/svg11.dtd">
<!-- Generated by graphviz version 2.47.0 (20210316.0004)
 -->
<!-- Title: dependencies Pages: 1 -->
<svg width="504pt" height="284pt"
 viewBox="0.00 0.00 504.00 284.00" xmlns="http://www.w3.org/2000/svg" xmlns:xlink="http://www.w3.org/1999/xlink">
<g id="graph0" class="graph" transform="scale(1 1) rotate(0) translate(4 280)">
<title>dependencies</title>
<polygon fill="white" stroke="transparent" points="-4,4 -4,-280 500,-280 500,4 -4,4"/>
<text text-anchor="start" x="227.01" y="-42.4" font-family="Times-12" font-weight="bold" font-size="14.00">Legend</text>
<polygon fill="#ffffb3" stroke="transparent" points="14,-10 14,-30 34,-30 34,-10 14,-10"/>
<text text-anchor="start" x="37.63" y="-15.4" font-family="Times-12" font-size="14.00"> &#160;Declarations</text>
<polygon fill="#8dd3c7" stroke="transparent" points="127,-10 127,-30 147,-30 147,-10 127,-10"/>
<text text-anchor="start" x="150.73" y="-15.4" font-family="Times-12" font-size="14.00"> &#160;Module</text>
<polygon fill="#80b1d3" stroke="transparent" points="213,-10 213,-30 233,-30 233,-10 213,-10"/>
<text text-anchor="start" x="236.78" y="-15.4" font-family="Times-12" font-size="14.00"> &#160;Bootstrap</text>
<polygon fill="#fdb462" stroke="transparent" points="310,-10 310,-30 330,-30 330,-10 310,-10"/>
<text text-anchor="start" x="333.67" y="-15.4" font-family="Times-12" font-size="14.00"> &#160;Providers</text>
<polygon fill="#fb8072" stroke="transparent" points="406,-10 406,-30 426,-30 426,-10 406,-10"/>
<text text-anchor="start" x="429.73" y="-15.4" font-family="Times-12" font-size="14.00"> &#160;Exports</text>
<g id="clust1" class="cluster">
<title>cluster_HelperModule</title>
<polygon fill="none" stroke="black" stroke-dasharray="1,5" points="83,-70 83,-268 413,-268 413,-70 83,-70"/>
</g>
<g id="clust6" class="cluster">
<title>cluster_HelperModule_providers</title>
<polygon fill="none" stroke="black" points="121,-78 121,-130 381,-130 381,-78 121,-78"/>
</g>
<g id="clust4" class="cluster">
<title>cluster_HelperModule_exports</title>
<polygon fill="none" stroke="black" points="91,-208 91,-260 405,-260 405,-208 91,-208"/>
</g>
<!-- AdminEventsGateway  -->
<g id="node1" class="node">
<title>AdminEventsGateway </title>
<polygon fill="#fb8072" stroke="black" points="397.24,-252 250.76,-252 250.76,-216 397.24,-216 397.24,-252"/>
<text text-anchor="middle" x="324" y="-229.8" font-family="Times,serif" font-size="14.00">AdminEventsGateway </text>
</g>
<!-- WebEventsGateway  -->
<g id="node2" class="node">
<title>WebEventsGateway </title>
<polygon fill="#fb8072" stroke="black" points="232.78,-252 99.22,-252 99.22,-216 232.78,-216 232.78,-252"/>
<text text-anchor="middle" x="166" y="-229.8" font-family="Times,serif" font-size="14.00">WebEventsGateway </text>
</g>
<!-- HelperModule -->
<g id="node3" class="node">
<title>HelperModule</title>
<polygon fill="#8dd3c7" stroke="black" points="237.64,-187 234.64,-191 213.64,-191 210.64,-187 140.36,-187 140.36,-151 237.64,-151 237.64,-187"/>
<text text-anchor="middle" x="189" y="-164.8" font-family="Times,serif" font-size="14.00">HelperModule</text>
</g>
<!-- HelperModule&#45;&gt;AdminEventsGateway  -->
<g id="edge1" class="edge">
<title>HelperModule&#45;&gt;AdminEventsGateway </title>
<path fill="none" stroke="black" stroke-dasharray="5,2" d="M237.92,-175C265.4,-175 294.23,-175 294.23,-175 294.23,-175 294.23,-205.98 294.23,-205.98"/>
<polygon fill="black" stroke="black" points="290.73,-205.98 294.23,-215.98 297.73,-205.98 290.73,-205.98"/>
</g>
<!-- HelperModule&#45;&gt;WebEventsGateway  -->
<g id="edge2" class="edge">
<title>HelperModule&#45;&gt;WebEventsGateway </title>
<path fill="none" stroke="black" stroke-dasharray="5,2" d="M186.54,-187.11C186.54,-187.11 186.54,-205.99 186.54,-205.99"/>
<polygon fill="black" stroke="black" points="183.04,-205.99 186.54,-215.99 190.04,-205.99 183.04,-205.99"/>
</g>
<!-- CronService -->
<g id="node4" class="node">
<title>CronService</title>
<ellipse fill="#fdb462" stroke="black" cx="314" cy="-104" rx="59.11" ry="18"/>
<text text-anchor="middle" x="314" y="-99.8" font-family="Times,serif" font-size="14.00">CronService</text>
</g>
<!-- CronService&#45;&gt;HelperModule -->
<g id="edge3" class="edge">
<title>CronService&#45;&gt;HelperModule</title>
<path fill="none" stroke="black" d="M333.77,-121.07C333.77,-138.49 333.77,-163 333.77,-163 333.77,-163 248.01,-163 248.01,-163"/>
<polygon fill="black" stroke="black" points="248.01,-159.5 238.01,-163 248.01,-166.5 248.01,-159.5"/>
</g>
<!-- QQService -->
<g id="node5" class="node">
<title>QQService</title>
<ellipse fill="#fdb462" stroke="black" cx="183" cy="-104" rx="53.87" ry="18"/>
<text text-anchor="middle" x="183" y="-99.8" font-family="Times,serif" font-size="14.00">QQService</text>
</g>
<!-- QQService&#45;&gt;HelperModule -->
<g id="edge4" class="edge">
<title>QQService&#45;&gt;HelperModule</title>
<path fill="none" stroke="black" d="M188.56,-122.11C188.56,-122.11 188.56,-140.99 188.56,-140.99"/>
<polygon fill="black" stroke="black" points="185.06,-140.99 188.56,-150.99 192.06,-140.99 185.06,-140.99"/>
</g>
</g>
</svg>
