<?xml version="1.0" encoding="UTF-8" standalone="no"?>
<!DOCTYPE svg PUBLIC "-//W3C//DTD SVG 1.1//EN"
 "http://www.w3.org/Graphics/SVG/1.1/DTD/svg11.dtd">
<!-- Generated by graphviz version 2.47.0 (20210316.0004)
 -->
<!-- Title: dependencies Pages: 1 -->
<svg width="504pt" height="284pt"
 viewBox="0.00 0.00 504.00 284.00" xmlns="http://www.w3.org/2000/svg" xmlns:xlink="http://www.w3.org/1999/xlink">
<g id="graph0" class="graph" transform="scale(1 1) rotate(0) translate(4 280)">
<title>dependencies</title>
<polygon fill="white" stroke="transparent" points="-4,4 -4,-280 500,-280 500,4 -4,4"/>
<text text-anchor="start" x="227.01" y="-42.4" font-family="Times-12" font-weight="bold" font-size="14.00">Legend</text>
<polygon fill="#ffffb3" stroke="transparent" points="14,-10 14,-30 34,-30 34,-10 14,-10"/>
<text text-anchor="start" x="37.63" y="-15.4" font-family="Times-12" font-size="14.00"> &#160;Declarations</text>
<polygon fill="#8dd3c7" stroke="transparent" points="127,-10 127,-30 147,-30 147,-10 127,-10"/>
<text text-anchor="start" x="150.73" y="-15.4" font-family="Times-12" font-size="14.00"> &#160;Module</text>
<polygon fill="#80b1d3" stroke="transparent" points="213,-10 213,-30 233,-30 233,-10 213,-10"/>
<text text-anchor="start" x="236.78" y="-15.4" font-family="Times-12" font-size="14.00"> &#160;Bootstrap</text>
<polygon fill="#fdb462" stroke="transparent" points="310,-10 310,-30 330,-30 330,-10 310,-10"/>
<text text-anchor="start" x="333.67" y="-15.4" font-family="Times-12" font-size="14.00"> &#160;Providers</text>
<polygon fill="#fb8072" stroke="transparent" points="406,-10 406,-30 426,-30 426,-10 406,-10"/>
<text text-anchor="start" x="429.73" y="-15.4" font-family="Times-12" font-size="14.00"> &#160;Exports</text>
<g id="clust1" class="cluster">
<title>cluster_SharedModule</title>
<polygon fill="none" stroke="black" stroke-dasharray="1,5" points="12,-70 12,-268 484,-268 484,-70 12,-70"/>
</g>
<g id="clust4" class="cluster">
<title>cluster_SharedModule_exports</title>
<polygon fill="none" stroke="black" points="73,-208 73,-260 422,-260 422,-208 73,-208"/>
</g>
<g id="clust3" class="cluster">
<title>cluster_SharedModule_imports</title>
<polygon fill="none" stroke="black" points="20,-78 20,-130 476,-130 476,-78 20,-78"/>
</g>
<!-- HelperModule -->
<g id="node1" class="node">
<title>HelperModule</title>
<polygon fill="#8dd3c7" stroke="black" points="467.64,-122 464.64,-126 443.64,-126 440.64,-122 370.36,-122 370.36,-86 467.64,-86 467.64,-122"/>
<text text-anchor="middle" x="419" y="-99.8" font-family="Times,serif" font-size="14.00">HelperModule</text>
</g>
<!-- SharedModule -->
<g id="node5" class="node">
<title>SharedModule</title>
<polygon fill="#8dd3c7" stroke="black" points="293.42,-187 290.42,-191 269.42,-191 266.42,-187 194.58,-187 194.58,-151 293.42,-151 293.42,-187"/>
<text text-anchor="middle" x="244" y="-164.8" font-family="Times,serif" font-size="14.00">SharedModule</text>
</g>
<!-- HelperModule&#45;&gt;SharedModule -->
<g id="edge1" class="edge">
<title>HelperModule&#45;&gt;SharedModule</title>
<path fill="none" stroke="black" d="M391.88,-122.02C391.88,-139.37 391.88,-163 391.88,-163 391.88,-163 303.24,-163 303.24,-163"/>
<polygon fill="black" stroke="black" points="303.24,-159.5 293.24,-163 303.24,-166.5 303.24,-159.5"/>
</g>
<!-- LoggerModule -->
<g id="node2" class="node">
<title>LoggerModule</title>
<polygon fill="#8dd3c7" stroke="black" points="351.98,-122 348.98,-126 327.98,-126 324.98,-122 252.02,-122 252.02,-86 351.98,-86 351.98,-122"/>
<text text-anchor="middle" x="302" y="-99.8" font-family="Times,serif" font-size="14.00">LoggerModule</text>
</g>
<!-- LoggerModule&#45;&gt;SharedModule -->
<g id="edge2" class="edge">
<title>LoggerModule&#45;&gt;SharedModule</title>
<path fill="none" stroke="black" d="M272.61,-122.11C272.61,-122.11 272.61,-140.99 272.61,-140.99"/>
<polygon fill="black" stroke="black" points="269.11,-140.99 272.61,-150.99 276.11,-140.99 269.11,-140.99"/>
</g>
<!-- MailerModule -->
<g id="node3" class="node">
<title>MailerModule</title>
<polygon fill="#8dd3c7" stroke="black" points="234.37,-122 231.37,-126 210.37,-126 207.37,-122 137.63,-122 137.63,-86 234.37,-86 234.37,-122"/>
<text text-anchor="middle" x="186" y="-99.8" font-family="Times,serif" font-size="14.00">MailerModule</text>
</g>
<!-- MailerModule&#45;&gt;SharedModule -->
<g id="edge3" class="edge">
<title>MailerModule&#45;&gt;SharedModule</title>
<path fill="none" stroke="black" d="M214.61,-122.11C214.61,-122.11 214.61,-140.99 214.61,-140.99"/>
<polygon fill="black" stroke="black" points="211.11,-140.99 214.61,-150.99 218.11,-140.99 211.11,-140.99"/>
</g>
<!-- RedisModule -->
<g id="node4" class="node">
<title>RedisModule</title>
<polygon fill="#8dd3c7" stroke="black" points="119.94,-122 116.94,-126 95.94,-126 92.94,-122 28.06,-122 28.06,-86 119.94,-86 119.94,-122"/>
<text text-anchor="middle" x="74" y="-99.8" font-family="Times,serif" font-size="14.00">RedisModule</text>
</g>
<!-- RedisModule&#45;&gt;SharedModule -->
<g id="edge4" class="edge">
<title>RedisModule&#45;&gt;SharedModule</title>
<path fill="none" stroke="black" d="M100.12,-122.02C100.12,-139.37 100.12,-163 100.12,-163 100.12,-163 184.49,-163 184.49,-163"/>
<polygon fill="black" stroke="black" points="184.49,-166.5 194.49,-163 184.49,-159.5 184.49,-166.5"/>
</g>
<!-- HelperModule  -->
<g id="node6" class="node">
<title>HelperModule </title>
<polygon fill="#fb8072" stroke="black" points="413.64,-252 312.36,-252 312.36,-216 413.64,-216 413.64,-252"/>
<text text-anchor="middle" x="363" y="-229.8" font-family="Times,serif" font-size="14.00">HelperModule </text>
</g>
<!-- SharedModule&#45;&gt;HelperModule  -->
<g id="edge5" class="edge">
<title>SharedModule&#45;&gt;HelperModule </title>
<path fill="none" stroke="black" stroke-dasharray="5,2" d="M293.26,-175C313.47,-175 332.21,-175 332.21,-175 332.21,-175 332.21,-205.98 332.21,-205.98"/>
<polygon fill="black" stroke="black" points="328.71,-205.98 332.21,-215.98 335.71,-205.98 328.71,-205.98"/>
</g>
<!-- MailerModule  -->
<g id="node7" class="node">
<title>MailerModule </title>
<polygon fill="#fb8072" stroke="black" points="294.37,-252 193.63,-252 193.63,-216 294.37,-216 294.37,-252"/>
<text text-anchor="middle" x="244" y="-229.8" font-family="Times,serif" font-size="14.00">MailerModule </text>
</g>
<!-- SharedModule&#45;&gt;MailerModule  -->
<g id="edge6" class="edge">
<title>SharedModule&#45;&gt;MailerModule </title>
<path fill="none" stroke="black" stroke-dasharray="5,2" d="M244,-187.11C244,-187.11 244,-205.99 244,-205.99"/>
<polygon fill="black" stroke="black" points="240.5,-205.99 244,-215.99 247.5,-205.99 240.5,-205.99"/>
</g>
<!-- RedisModule  -->
<g id="node8" class="node">
<title>RedisModule </title>
<polygon fill="#fb8072" stroke="black" points="175.44,-252 80.56,-252 80.56,-216 175.44,-216 175.44,-252"/>
<text text-anchor="middle" x="128" y="-229.8" font-family="Times,serif" font-size="14.00">RedisModule </text>
</g>
<!-- SharedModule&#45;&gt;RedisModule  -->
<g id="edge7" class="edge">
<title>SharedModule&#45;&gt;RedisModule </title>
<path fill="none" stroke="black" stroke-dasharray="5,2" d="M194.63,-175C174.79,-175 156.52,-175 156.52,-175 156.52,-175 156.52,-205.98 156.52,-205.98"/>
<polygon fill="black" stroke="black" points="153.02,-205.98 156.52,-215.98 160.02,-205.98 153.02,-205.98"/>
</g>
</g>
</svg>
