<?xml version="1.0" encoding="UTF-8" standalone="no"?>
<!DOCTYPE svg PUBLIC "-//W3C//DTD SVG 1.1//EN"
 "http://www.w3.org/Graphics/SVG/1.1/DTD/svg11.dtd">
<!-- Generated by graphviz version 2.47.0 (20210316.0004)
 -->
<!-- Title: dependencies Pages: 1 -->
<svg width="504pt" height="284pt"
 viewBox="0.00 0.00 504.00 284.00" xmlns="http://www.w3.org/2000/svg" xmlns:xlink="http://www.w3.org/1999/xlink">
<g id="graph0" class="graph" transform="scale(1 1) rotate(0) translate(4 280)">
<title>dependencies</title>
<polygon fill="white" stroke="transparent" points="-4,4 -4,-280 500,-280 500,4 -4,4"/>
<text text-anchor="start" x="227.01" y="-42.4" font-family="Times-12" font-weight="bold" font-size="14.00">Legend</text>
<polygon fill="#ffffb3" stroke="transparent" points="14,-10 14,-30 34,-30 34,-10 14,-10"/>
<text text-anchor="start" x="37.63" y="-15.4" font-family="Times-12" font-size="14.00"> &#160;Declarations</text>
<polygon fill="#8dd3c7" stroke="transparent" points="127,-10 127,-30 147,-30 147,-10 127,-10"/>
<text text-anchor="start" x="150.73" y="-15.4" font-family="Times-12" font-size="14.00"> &#160;Module</text>
<polygon fill="#80b1d3" stroke="transparent" points="213,-10 213,-30 233,-30 233,-10 213,-10"/>
<text text-anchor="start" x="236.78" y="-15.4" font-family="Times-12" font-size="14.00"> &#160;Bootstrap</text>
<polygon fill="#fdb462" stroke="transparent" points="310,-10 310,-30 330,-30 330,-10 310,-10"/>
<text text-anchor="start" x="333.67" y="-15.4" font-family="Times-12" font-size="14.00"> &#160;Providers</text>
<polygon fill="#fb8072" stroke="transparent" points="406,-10 406,-30 426,-30 426,-10 406,-10"/>
<text text-anchor="start" x="429.73" y="-15.4" font-family="Times-12" font-size="14.00"> &#160;Exports</text>
<g id="clust1" class="cluster">
<title>cluster_DatabaseModule</title>
<polygon fill="none" stroke="black" stroke-dasharray="1,5" points="48.5,-70 48.5,-268 447.5,-268 447.5,-70 48.5,-70"/>
</g>
<g id="clust6" class="cluster">
<title>cluster_DatabaseModule_providers</title>
<polygon fill="none" stroke="black" points="56.5,-78 56.5,-130 439.5,-130 439.5,-78 56.5,-78"/>
</g>
<g id="clust4" class="cluster">
<title>cluster_DatabaseModule_exports</title>
<polygon fill="none" stroke="black" points="77.5,-208 77.5,-260 391.5,-260 391.5,-208 77.5,-208"/>
</g>
<!-- AdminEventsGateway  -->
<g id="node1" class="node">
<title>AdminEventsGateway </title>
<polygon fill="#fb8072" stroke="black" points="383.74,-252 237.26,-252 237.26,-216 383.74,-216 383.74,-252"/>
<text text-anchor="middle" x="310.5" y="-229.8" font-family="Times,serif" font-size="14.00">AdminEventsGateway </text>
</g>
<!-- WebEventsGateway  -->
<g id="node2" class="node">
<title>WebEventsGateway </title>
<polygon fill="#fb8072" stroke="black" points="219.28,-252 85.72,-252 85.72,-216 219.28,-216 219.28,-252"/>
<text text-anchor="middle" x="152.5" y="-229.8" font-family="Times,serif" font-size="14.00">WebEventsGateway </text>
</g>
<!-- DatabaseModule -->
<g id="node3" class="node">
<title>DatabaseModule</title>
<polygon fill="#8dd3c7" stroke="black" points="227.85,-187 224.85,-191 203.85,-191 200.85,-187 117.15,-187 117.15,-151 227.85,-151 227.85,-187"/>
<text text-anchor="middle" x="172.5" y="-164.8" font-family="Times,serif" font-size="14.00">DatabaseModule</text>
</g>
<!-- DatabaseModule&#45;&gt;AdminEventsGateway  -->
<g id="edge1" class="edge">
<title>DatabaseModule&#45;&gt;AdminEventsGateway </title>
<path fill="none" stroke="black" stroke-dasharray="5,2" d="M223.66,-187.11C223.66,-206.34 223.66,-234 223.66,-234 223.66,-234 227.23,-234 227.23,-234"/>
<polygon fill="black" stroke="black" points="227.23,-237.5 237.23,-234 227.23,-230.5 227.23,-237.5"/>
</g>
<!-- DatabaseModule&#45;&gt;WebEventsGateway  -->
<g id="edge2" class="edge">
<title>DatabaseModule&#45;&gt;WebEventsGateway </title>
<path fill="none" stroke="black" stroke-dasharray="5,2" d="M168.23,-187.11C168.23,-187.11 168.23,-205.99 168.23,-205.99"/>
<polygon fill="black" stroke="black" points="164.73,-205.99 168.23,-215.99 171.73,-205.99 164.73,-205.99"/>
</g>
<!-- EntityExistConstraint -->
<g id="node4" class="node">
<title>EntityExistConstraint</title>
<ellipse fill="#fdb462" stroke="black" cx="336.5" cy="-104" rx="94.96" ry="18"/>
<text text-anchor="middle" x="336.5" y="-99.8" font-family="Times,serif" font-size="14.00">EntityExistConstraint</text>
</g>
<!-- EntityExistConstraint&#45;&gt;DatabaseModule -->
<g id="edge3" class="edge">
<title>EntityExistConstraint&#45;&gt;DatabaseModule</title>
<path fill="none" stroke="black" d="M312.7,-121.76C312.7,-141.01 312.7,-169 312.7,-169 312.7,-169 237.91,-169 237.91,-169"/>
<polygon fill="black" stroke="black" points="237.91,-165.5 227.91,-169 237.91,-172.5 237.91,-165.5"/>
</g>
<!-- UniqueConstraint -->
<g id="node5" class="node">
<title>UniqueConstraint</title>
<ellipse fill="#fdb462" stroke="black" cx="144.5" cy="-104" rx="79.9" ry="18"/>
<text text-anchor="middle" x="144.5" y="-99.8" font-family="Times,serif" font-size="14.00">UniqueConstraint</text>
</g>
<!-- UniqueConstraint&#45;&gt;DatabaseModule -->
<g id="edge4" class="edge">
<title>UniqueConstraint&#45;&gt;DatabaseModule</title>
<path fill="none" stroke="black" d="M170.64,-121.08C170.64,-121.08 170.64,-140.9 170.64,-140.9"/>
<polygon fill="black" stroke="black" points="167.14,-140.9 170.64,-150.9 174.14,-140.9 167.14,-140.9"/>
</g>
</g>
</svg>
