<?xml version="1.0" encoding="UTF-8" standalone="no"?>
<!DOCTYPE svg PUBLIC "-//W3C//DTD SVG 1.1//EN"
 "http://www.w3.org/Graphics/SVG/1.1/DTD/svg11.dtd">
<!-- Generated by graphviz version 2.47.0 (20210316.0004)
 -->
<!-- Title: dependencies Pages: 1 -->
<svg width="504pt" height="284pt"
 viewBox="0.00 0.00 504.00 284.00" xmlns="http://www.w3.org/2000/svg" xmlns:xlink="http://www.w3.org/1999/xlink">
<g id="graph0" class="graph" transform="scale(1 1) rotate(0) translate(4 280)">
<title>dependencies</title>
<polygon fill="white" stroke="transparent" points="-4,4 -4,-280 500,-280 500,4 -4,4"/>
<text text-anchor="start" x="227.01" y="-42.4" font-family="Times-12" font-weight="bold" font-size="14.00">Legend</text>
<polygon fill="#ffffb3" stroke="transparent" points="14,-10 14,-30 34,-30 34,-10 14,-10"/>
<text text-anchor="start" x="37.63" y="-15.4" font-family="Times-12" font-size="14.00"> &#160;Declarations</text>
<polygon fill="#8dd3c7" stroke="transparent" points="127,-10 127,-30 147,-30 147,-10 127,-10"/>
<text text-anchor="start" x="150.73" y="-15.4" font-family="Times-12" font-size="14.00"> &#160;Module</text>
<polygon fill="#80b1d3" stroke="transparent" points="213,-10 213,-30 233,-30 233,-10 213,-10"/>
<text text-anchor="start" x="236.78" y="-15.4" font-family="Times-12" font-size="14.00"> &#160;Bootstrap</text>
<polygon fill="#fdb462" stroke="transparent" points="310,-10 310,-30 330,-30 330,-10 310,-10"/>
<text text-anchor="start" x="333.67" y="-15.4" font-family="Times-12" font-size="14.00"> &#160;Providers</text>
<polygon fill="#fb8072" stroke="transparent" points="406,-10 406,-30 426,-30 426,-10 406,-10"/>
<text text-anchor="start" x="429.73" y="-15.4" font-family="Times-12" font-size="14.00"> &#160;Exports</text>
<g id="clust1" class="cluster">
<title>cluster_LogModule</title>
<polygon fill="none" stroke="black" stroke-dasharray="1,5" points="83,-70 83,-268 413,-268 413,-70 83,-70"/>
</g>
<g id="clust4" class="cluster">
<title>cluster_LogModule_exports</title>
<polygon fill="none" stroke="black" points="91,-208 91,-260 405,-260 405,-208 91,-208"/>
</g>
<g id="clust3" class="cluster">
<title>cluster_LogModule_imports</title>
<polygon fill="none" stroke="black" points="194,-78 194,-130 296,-130 296,-78 194,-78"/>
</g>
<!-- UserModule -->
<g id="node1" class="node">
<title>UserModule</title>
<polygon fill="#8dd3c7" stroke="black" points="287.98,-122 284.98,-126 263.98,-126 260.98,-122 202.02,-122 202.02,-86 287.98,-86 287.98,-122"/>
<text text-anchor="middle" x="245" y="-99.8" font-family="Times,serif" font-size="14.00">UserModule</text>
</g>
<!-- LogModule -->
<g id="node2" class="node">
<title>LogModule</title>
<polygon fill="#8dd3c7" stroke="black" points="286.1,-187 283.1,-191 262.1,-191 259.1,-187 203.9,-187 203.9,-151 286.1,-151 286.1,-187"/>
<text text-anchor="middle" x="245" y="-164.8" font-family="Times,serif" font-size="14.00">LogModule</text>
</g>
<!-- UserModule&#45;&gt;LogModule -->
<g id="edge1" class="edge">
<title>UserModule&#45;&gt;LogModule</title>
<path fill="none" stroke="black" d="M245,-122.11C245,-122.11 245,-140.99 245,-140.99"/>
<polygon fill="black" stroke="black" points="241.5,-140.99 245,-150.99 248.5,-140.99 241.5,-140.99"/>
</g>
<!-- AdminEventsGateway  -->
<g id="node3" class="node">
<title>AdminEventsGateway </title>
<polygon fill="#fb8072" stroke="black" points="397.24,-252 250.76,-252 250.76,-216 397.24,-216 397.24,-252"/>
<text text-anchor="middle" x="324" y="-229.8" font-family="Times,serif" font-size="14.00">AdminEventsGateway </text>
</g>
<!-- LogModule&#45;&gt;AdminEventsGateway  -->
<g id="edge2" class="edge">
<title>LogModule&#45;&gt;AdminEventsGateway </title>
<path fill="none" stroke="black" stroke-dasharray="5,2" d="M268.47,-187.11C268.47,-187.11 268.47,-205.99 268.47,-205.99"/>
<polygon fill="black" stroke="black" points="264.97,-205.99 268.47,-215.99 271.97,-205.99 264.97,-205.99"/>
</g>
<!-- WebEventsGateway  -->
<g id="node4" class="node">
<title>WebEventsGateway </title>
<polygon fill="#fb8072" stroke="black" points="232.78,-252 99.22,-252 99.22,-216 232.78,-216 232.78,-252"/>
<text text-anchor="middle" x="166" y="-229.8" font-family="Times,serif" font-size="14.00">WebEventsGateway </text>
</g>
<!-- LogModule&#45;&gt;WebEventsGateway  -->
<g id="edge3" class="edge">
<title>LogModule&#45;&gt;WebEventsGateway </title>
<path fill="none" stroke="black" stroke-dasharray="5,2" d="M218.42,-187.11C218.42,-187.11 218.42,-205.99 218.42,-205.99"/>
<polygon fill="black" stroke="black" points="214.92,-205.99 218.42,-215.99 221.92,-205.99 214.92,-205.99"/>
</g>
</g>
</svg>
