<?xml version="1.0" encoding="UTF-8" standalone="no"?>
<!DOCTYPE svg PUBLIC "-//W3C//DTD SVG 1.1//EN"
 "http://www.w3.org/Graphics/SVG/1.1/DTD/svg11.dtd">
<!-- Generated by graphviz version 2.47.0 (20210316.0004)
 -->
<!-- Title: dependencies Pages: 1 -->
<svg width="504pt" height="284pt"
 viewBox="0.00 0.00 504.00 284.00" xmlns="http://www.w3.org/2000/svg" xmlns:xlink="http://www.w3.org/1999/xlink">
<g id="graph0" class="graph" transform="scale(1 1) rotate(0) translate(4 280)">
<title>dependencies</title>
<polygon fill="white" stroke="transparent" points="-4,4 -4,-280 500,-280 500,4 -4,4"/>
<text text-anchor="start" x="227.01" y="-42.4" font-family="Times-12" font-weight="bold" font-size="14.00">Legend</text>
<polygon fill="#ffffb3" stroke="transparent" points="14,-10 14,-30 34,-30 34,-10 14,-10"/>
<text text-anchor="start" x="37.63" y="-15.4" font-family="Times-12" font-size="14.00"> &#160;Declarations</text>
<polygon fill="#8dd3c7" stroke="transparent" points="127,-10 127,-30 147,-30 147,-10 127,-10"/>
<text text-anchor="start" x="150.73" y="-15.4" font-family="Times-12" font-size="14.00"> &#160;Module</text>
<polygon fill="#80b1d3" stroke="transparent" points="213,-10 213,-30 233,-30 233,-10 213,-10"/>
<text text-anchor="start" x="236.78" y="-15.4" font-family="Times-12" font-size="14.00"> &#160;Bootstrap</text>
<polygon fill="#fdb462" stroke="transparent" points="310,-10 310,-30 330,-30 330,-10 310,-10"/>
<text text-anchor="start" x="333.67" y="-15.4" font-family="Times-12" font-size="14.00"> &#160;Providers</text>
<polygon fill="#fb8072" stroke="transparent" points="406,-10 406,-30 426,-30 426,-10 406,-10"/>
<text text-anchor="start" x="429.73" y="-15.4" font-family="Times-12" font-size="14.00"> &#160;Exports</text>
<g id="clust1" class="cluster">
<title>cluster_TaskModule</title>
<polygon fill="none" stroke="black" stroke-dasharray="1,5" points="83,-70 83,-268 413,-268 413,-70 83,-70"/>
</g>
<g id="clust3" class="cluster">
<title>cluster_TaskModule_imports</title>
<polygon fill="none" stroke="black" points="196,-78 196,-130 294,-130 294,-78 196,-78"/>
</g>
<g id="clust4" class="cluster">
<title>cluster_TaskModule_exports</title>
<polygon fill="none" stroke="black" points="91,-208 91,-260 405,-260 405,-208 91,-208"/>
</g>
<!-- LogModule -->
<g id="node1" class="node">
<title>LogModule</title>
<polygon fill="#8dd3c7" stroke="black" points="286.1,-122 283.1,-126 262.1,-126 259.1,-122 203.9,-122 203.9,-86 286.1,-86 286.1,-122"/>
<text text-anchor="middle" x="245" y="-99.8" font-family="Times,serif" font-size="14.00">LogModule</text>
</g>
<!-- TaskModule -->
<g id="node2" class="node">
<title>TaskModule</title>
<polygon fill="#8dd3c7" stroke="black" points="288.26,-187 285.26,-191 264.26,-191 261.26,-187 201.74,-187 201.74,-151 288.26,-151 288.26,-187"/>
<text text-anchor="middle" x="245" y="-164.8" font-family="Times,serif" font-size="14.00">TaskModule</text>
</g>
<!-- LogModule&#45;&gt;TaskModule -->
<g id="edge1" class="edge">
<title>LogModule&#45;&gt;TaskModule</title>
<path fill="none" stroke="black" d="M245,-122.11C245,-122.11 245,-140.99 245,-140.99"/>
<polygon fill="black" stroke="black" points="241.5,-140.99 245,-150.99 248.5,-140.99 241.5,-140.99"/>
</g>
<!-- AdminEventsGateway  -->
<g id="node3" class="node">
<title>AdminEventsGateway </title>
<polygon fill="#fb8072" stroke="black" points="397.24,-252 250.76,-252 250.76,-216 397.24,-216 397.24,-252"/>
<text text-anchor="middle" x="324" y="-229.8" font-family="Times,serif" font-size="14.00">AdminEventsGateway </text>
</g>
<!-- TaskModule&#45;&gt;AdminEventsGateway  -->
<g id="edge2" class="edge">
<title>TaskModule&#45;&gt;AdminEventsGateway </title>
<path fill="none" stroke="black" stroke-dasharray="5,2" d="M269.63,-187.11C269.63,-187.11 269.63,-205.99 269.63,-205.99"/>
<polygon fill="black" stroke="black" points="266.13,-205.99 269.63,-215.99 273.13,-205.99 266.13,-205.99"/>
</g>
<!-- WebEventsGateway  -->
<g id="node4" class="node">
<title>WebEventsGateway </title>
<polygon fill="#fb8072" stroke="black" points="232.78,-252 99.22,-252 99.22,-216 232.78,-216 232.78,-252"/>
<text text-anchor="middle" x="166" y="-229.8" font-family="Times,serif" font-size="14.00">WebEventsGateway </text>
</g>
<!-- TaskModule&#45;&gt;WebEventsGateway  -->
<g id="edge3" class="edge">
<title>TaskModule&#45;&gt;WebEventsGateway </title>
<path fill="none" stroke="black" stroke-dasharray="5,2" d="M217.25,-187.11C217.25,-187.11 217.25,-205.99 217.25,-205.99"/>
<polygon fill="black" stroke="black" points="213.75,-205.99 217.25,-215.99 220.75,-205.99 213.75,-205.99"/>
</g>
</g>
</svg>
